<?xml version="1.0" encoding="UTF-8" standalone="no"?><!DOCTYPE svg PUBLIC "-//W3C//DTD SVG 1.1//EN" "http://www.w3.org/Graphics/SVG/1.1/DTD/svg11.dtd"><svg width="100%" height="100%" viewBox="0 0 2846 1838" version="1.1" xmlns="http://www.w3.org/2000/svg" xmlns:xlink="http://www.w3.org/1999/xlink" xml:space="preserve" xmlns:serif="http://www.serif.com/" style="fill-rule:evenodd;clip-rule:evenodd;stroke-linejoin:round;stroke-miterlimit:2;"><g><path d="M2823.78,410.15c-20.183,-16.358 -40.371,-32.717 -60.554,-49.079" style="fill:#fff;fill-rule:nonzero;"/><path d="M2281.14,410.096c-0.459,-0.584 12.204,-11.359 28.274,-24.071c16.084,-12.717 29.484,-22.554 29.946,-21.971c0.459,0.579 -12.2,11.354 -28.279,24.075c-16.075,12.708 -29.483,22.546 -29.941,21.967Z" style="fill:#d7d9d9;fill-rule:nonzero;"/><path d="M2834.2,1690.99c0,0.595 -626.337,1.083 -1398.78,1.083c-772.717,-0 -1398.92,-0.488 -1398.92,-1.083c0,-0.6 626.204,-1.088 1398.92,-1.088c772.446,0 1398.78,0.488 1398.78,1.088Z" style="fill:#0c2b34;fill-rule:nonzero;"/><path d="M2467.83,1676.17l-2058.85,-0c-33.521,-0 -60.696,-27.171 -60.696,-60.696l0,-1348.77c0,-17.838 14.459,-32.296 32.296,-32.296l2119.86,0c15.513,0 28.084,12.571 28.084,28.079l-0,1352.99c-0,33.525 -27.171,60.696 -60.696,60.696Z" style="fill:#4e4c4b;fill-rule:nonzero;"/><path d="M2562.06,1695.69l-2247.78,-0c-31.575,-0 -57.171,-25.6 -57.171,-57.175l0,-68.979l2362.12,-0l0,68.979c0,31.575 -25.6,57.175 -57.175,57.175Z" style="fill:#4c4c4c;fill-rule:nonzero;"/><rect x="406.804" y="291.688" width="2057.1" height="1217.55" style="fill:#f0f0f0;fill-rule:nonzero;"/><path d="M1223.48,1569.54l29.313,46.625l412.458,-0l27.217,-46.625l-468.988,-0Z" style="fill:#0c2b34;fill-rule:nonzero;"/><rect x="348.633" y="1569.11" width="2180.24" height="6.954" style="fill:#0c2b34;fill-rule:nonzero;"/><path d="M989.246,234.404l-226.5,0l-0,-79.758c-0,-56.308 45.617,-103.934 101.925,-103.934l124.575,1.98l-0,181.712Z" style="fill:#bcbcbc;fill-rule:nonzero;"/><path d="M859.812,50.6c0,0 128.905,-11.7 128.905,156.4l-0,1307.73l1011.65,0l-0,-1355.41c-0,-61.437 -49.884,-111.204 -111.325,-111.058l-1029.23,2.333Z" style="fill:#fff;fill-rule:nonzero;"/><path d="M859.812,50.6c5.996,-0.017 286.238,-0.921 748.455,-2.417c57.721,-0.166 118.2,-0.341 181.216,-0.525c31.513,-0.083 63.654,-0.166 96.409,-0.254c16.433,-0.2 33.325,2.538 48.654,9.584c15.358,6.858 29.283,17.245 40.391,30.274c11.08,13.067 18.992,28.93 23.13,45.83c1.283,4.175 1.583,8.558 2.345,12.862c0.613,4.325 0.555,8.729 0.863,13.104c0.004,8.709 0.012,17.45 0.021,26.229c0.008,35.109 0.017,70.775 0.025,106.967c0.017,72.384 0.033,146.879 0.046,223.275c0.029,305.588 0.054,641.546 0.083,994.184l-0,6.108l-1.083,-0c-359.984,-0.033 -702.438,-0.063 -1011.65,-0.092l-0.996,0l-0,-0.996c0.158,-452.787 0.296,-837.246 0.392,-1108.53c0.054,-67.812 0.095,-128.558 0.137,-181.525c0.004,-13.241 0.158,-26 -0.737,-38.204c-0.609,-12.237 -2.621,-23.842 -4.838,-34.837c-2.579,-10.934 -5.846,-21.175 -9.904,-30.542c-4.208,-9.296 -9.1,-17.696 -14.529,-25.071c-11.067,-14.621 -24.125,-24.842 -36.513,-31.312c-12.358,-6.621 -23.879,-9.842 -33.171,-11.746c-9.341,-1.833 -16.587,-2.321 -21.429,-2.434c-4.846,-0.116 -7.317,0.063 -7.317,0.063c0,0 2.463,-0.292 7.321,-0.225c4.85,0.058 12.113,0.492 21.488,2.275c9.325,1.854 20.896,5.033 33.337,11.637c12.463,6.45 25.625,16.684 36.796,31.359c5.479,7.4 10.417,15.833 14.671,25.162c4.1,9.405 7.404,19.688 10.017,30.659c2.254,11.033 4.296,22.683 4.929,34.95c0.925,12.25 0.792,25.037 0.812,38.266c0.042,52.967 0.084,113.713 0.138,181.525c0.091,271.279 0.229,655.738 0.392,1108.53l-0.996,-0.991c309.212,-0.029 651.666,-0.063 1011.65,-0.092l-1.084,1.083l0,-5.02c0.029,-352.638 0.059,-688.596 0.084,-994.184c0.016,-76.396 0.033,-150.891 0.046,-223.275c0.008,-36.192 0.02,-71.858 0.029,-106.967c-0.271,-17.533 1.254,-35.12 -3.154,-51.77c-4.059,-16.621 -11.83,-32.23 -22.726,-45.096c-10.925,-12.825 -24.62,-23.058 -39.733,-29.817c-15.104,-6.946 -31.646,-9.641 -47.937,-9.462c-32.813,0.062 -65.017,0.125 -96.584,0.183c-63.137,0.104 -123.733,0.204 -181.571,0.3c-461.891,0.6 -741.937,0.967 -747.925,0.975Z" style="fill:#0c2b34;fill-rule:nonzero;"/><path d="M1421.74,447.45c-0,0.604 -61.521,1.087 -137.392,1.087c-75.896,0 -137.404,-0.483 -137.404,-1.087c-0,-0.596 61.508,-1.083 137.404,-1.083c75.871,-0 137.392,0.487 137.392,1.083Z" style="fill:#0c2b34;fill-rule:nonzero;"/><path d="M1483.33,480.312c0,0.601 -75.308,1.084 -168.187,1.084c-92.908,-0 -168.204,-0.483 -168.204,-1.084c-0,-0.599 75.296,-1.087 168.204,-1.087c92.879,0 168.187,0.488 168.187,1.087Z" style="fill:#0c2b34;fill-rule:nonzero;"/><path d="M1505.41,609.671c-0,0.596 -77.759,1.083 -173.659,1.083c-95.937,0 -173.679,-0.487 -173.679,-1.083c-0,-0.6 77.742,-1.088 173.679,-1.088c95.9,0 173.659,0.488 173.659,1.088Z" style="fill:#0c2b34;fill-rule:nonzero;"/><path d="M1732.31,735.737c-0,0.601 -130.005,1.088 -290.334,1.088c-160.387,0 -290.362,-0.487 -290.362,-1.088c-0,-0.595 129.975,-1.083 290.362,-1.083c160.329,0 290.334,0.488 290.334,1.083Z" style="fill:#0c2b34;fill-rule:nonzero;"/><path d="M1732.31,773.358c-0,0.6 -130.005,1.084 -290.334,1.084c-160.387,-0 -290.362,-0.484 -290.362,-1.084c-0,-0.6 129.975,-1.083 290.362,-1.083c160.329,-0 290.334,0.483 290.334,1.083Z" style="fill:#0c2b34;fill-rule:nonzero;"/><path d="M1732.31,810.975c-0,0.6 -130.005,1.083 -290.334,1.083c-160.387,0 -290.362,-0.483 -290.362,-1.083c-0,-0.6 129.975,-1.083 290.362,-1.083c160.329,-0 290.334,0.483 290.334,1.083Z" style="fill:#0c2b34;fill-rule:nonzero;"/><path d="M1732.31,848.592c-0,0.6 -130.005,1.087 -290.334,1.087c-160.387,0 -290.362,-0.487 -290.362,-1.087c-0,-0.6 129.975,-1.084 290.362,-1.084c160.329,0 290.334,0.484 290.334,1.084Z" style="fill:#0c2b34;fill-rule:nonzero;"/><path d="M1732.31,886.212c-0,0.596 -130.005,1.084 -290.334,1.084c-160.387,-0 -290.362,-0.488 -290.362,-1.084c-0,-0.6 129.975,-1.087 290.362,-1.087c160.329,-0 290.334,0.487 290.334,1.087Z" style="fill:#0c2b34;fill-rule:nonzero;"/><path d="M1371.82,923.829c-0,0.6 -49.296,1.084 -110.096,1.084c-60.821,-0 -110.108,-0.484 -110.108,-1.084c-0,-0.6 49.287,-1.083 110.108,-1.083c60.8,-0 110.096,0.483 110.096,1.083Z" style="fill:#0c2b34;fill-rule:nonzero;"/><path d="M1836.13,730.479l-103.304,240.034c-2.179,5.066 2.979,10.175 8.025,7.949l79.625,-35.149c3.271,-1.442 7.075,0.241 8.204,3.633l26.867,80.642c1.804,5.425 9.425,5.566 11.437,0.212l97.088,-258.913l-127.942,-38.408Z" style="fill:#f37368;fill-rule:nonzero;"/><path d="M1970.74,770.425l49.479,256.592c1.046,5.412 8.187,6.741 11.104,2.062l46.1,-73.821c1.896,-3.037 5.988,-3.783 8.833,-1.608l67.538,51.596c4.546,3.471 10.929,-0.696 9.579,-6.254l-65.229,-268.717l-127.404,40.15Z" style="fill:#f37368;fill-rule:nonzero;"/><path d="M1861.3,1031.74c-2.421,-0 -4.842,-1.396 -5.758,-4.15l-26.867,-80.642c-0.854,-2.563 -3.233,-4.15 -5.758,-4.15c-0.817,-0 -1.65,0.167 -2.446,0.517l-79.625,35.149c-0.833,0.367 -1.671,0.534 -2.479,0.534c-3.275,-0 -6.05,-2.754 -6.058,-6.038c-0,-0.795 0.158,-1.62 0.512,-2.445l103.304,-240.034l127.942,38.408l-97.088,258.913c-0.991,2.633 -3.337,3.938 -5.679,3.938Z" style="fill:#b93326;fill-rule:nonzero;"/><path d="M2026.22,1031.94c-2.709,0 -5.388,-1.766 -5.996,-4.92l-18.817,-97.592l-2.071,-10.725l-28.591,-148.275l127.404,-40.15l65.229,268.717c0.129,0.516 0.188,1.025 0.188,1.512c-0.009,3.425 -2.934,6.009 -6.109,6.009c-1.237,-0 -2.504,-0.388 -3.658,-1.267l-67.538,-51.596c-1.108,-0.846 -2.4,-1.25 -3.679,-1.25c-2.017,0 -3.996,1 -5.154,2.858l-46.1,73.821c-1.217,1.954 -3.171,2.858 -5.108,2.858Z" style="fill:#b9311f;fill-rule:nonzero;"/><path d="M1975.78,309.712l33.913,-24.925l26.645,32.575l39.046,-15.708l17.713,38.179l41.725,-5.5l7.662,41.384l41.784,5.045l-2.875,41.988l39.216,15.275l-13.225,39.958l34.183,24.55l-22.745,35.413l27.008,32.279l-30.842,28.642l18.13,37.983l-36.992,20.071l8.112,41.3l-40.821,10.246l-2.412,42.016l-42.083,-0.233l-12.792,40.1l-40.704,-10.692l-22.359,35.659l-36.766,-20.475l-30.521,28.979l-30.521,-28.979l-36.771,20.475l-22.358,-35.659l-40.704,10.692l-12.788,-40.1l-42.087,0.233l-2.413,-42.016l-40.82,-10.246l8.112,-41.3l-36.992,-20.071l18.129,-37.983l-30.837,-28.642l27.004,-32.279l-22.746,-35.413l34.184,-24.55l-13.225,-39.958l39.216,-15.275l-2.871,-41.988l41.78,-5.045l7.662,-41.384l41.725,5.5l17.713,-38.179l39.046,15.708l26.645,-32.575l33.917,24.925Z" style="fill:#811100;fill-rule:nonzero;"/><path d="M2166.38,554.304c0,105.271 -85.337,190.608 -190.608,190.608c-105.275,0 -190.613,-85.337 -190.613,-190.608c0,-105.275 85.338,-190.612 190.613,-190.612c105.271,-0 190.608,85.337 190.608,190.612Z" style="fill:#fff;fill-rule:nonzero;"/><path d="M2017.36,509.154l51.155,7.488c8.4,1.233 11.746,11.566 5.654,17.487l-37.058,36.046c-2.417,2.354 -3.525,5.742 -2.959,9.067l8.684,50.966c1.429,8.375 -7.367,14.746 -14.884,10.788l-45.733,-24.113c-2.984,-1.571 -6.546,-1.575 -9.533,-0.008l-45.788,24.004c-7.525,3.946 -16.304,-2.45 -14.858,-10.817l8.791,-50.945c0.58,-3.325 -0.521,-6.717 -2.933,-9.075l-36.983,-36.129c-6.075,-5.934 -2.705,-16.259 5.704,-17.471l51.167,-7.375c3.341,-0.484 6.224,-2.579 7.72,-5.6l22.934,-46.338c3.77,-7.608 14.629,-7.596 18.379,0.021l22.829,46.387c1.488,3.03 4.375,5.126 7.712,5.617Z" style="fill:#b93326;fill-rule:nonzero;"/><path d="M1243.2,253.121c-0,-13.759 10.525,-23.517 24.866,-23.517c8.334,0 15.05,3.038 19.442,8.529l-8.137,7.363c-2.842,-3.425 -6.33,-5.296 -10.659,-5.296c-7.425,0 -12.595,5.167 -12.595,12.921c-0,7.75 5.17,12.916 12.595,12.916c4.329,0 7.817,-1.87 10.659,-5.295l8.137,7.362c-4.392,5.492 -11.108,8.525 -19.442,8.525c-14.341,0 -24.866,-9.75 -24.866,-23.508Z" style="fill:#0c2b34;fill-rule:nonzero;"/><path d="M1329.5,265.846l-0,9.883l-36.304,0l-0,-45.217l35.462,0l0,9.884l-22.8,-0l0,7.621l20.088,-0l-0,9.558l-20.088,-0l0,8.271l23.642,-0Z" style="fill:#0c2b34;fill-rule:nonzero;"/><path d="M1356.51,240.587l-7.104,0l0,13.242l7.104,0c5.296,0 7.942,-2.454 7.942,-6.587c-0,-4.2 -2.646,-6.655 -7.942,-6.655Zm-0.129,23.125l-6.975,0l0,12.017l-12.792,0l0,-45.217l20.671,0c12.334,0 20.088,6.392 20.088,16.73c-0,6.65 -3.229,11.562 -8.85,14.275l9.758,14.212l-13.696,0l-8.204,-12.017Z" style="fill:#0c2b34;fill-rule:nonzero;"/><path d="M1393.4,240.654l-13.892,0l0,-10.142l40.5,0l0,10.142l-13.821,0l0,35.075l-12.787,0l-0,-35.075Z" style="fill:#0c2b34;fill-rule:nonzero;"/><rect x="1424.8" y="230.512" width="12.792" height="45.217" style="fill:#0c2b34;fill-rule:nonzero;"/><path d="M1459.49,240.396l-0,9.946l19.962,-0l-0,9.883l-19.962,0l-0,15.504l-12.788,0l0,-45.217l35.462,0l0,9.884l-22.674,-0Z" style="fill:#0c2b34;fill-rule:nonzero;"/><rect x="1488.17" y="230.512" width="12.792" height="45.217" style="fill:#0c2b34;fill-rule:nonzero;"/><path d="M1507.75,253.121c-0,-13.759 10.525,-23.517 24.871,-23.517c8.329,0 15.05,3.038 19.441,8.529l-8.137,7.363c-2.846,-3.425 -6.333,-5.296 -10.662,-5.296c-7.426,0 -12.596,5.167 -12.596,12.921c-0,7.75 5.17,12.916 12.596,12.916c4.329,0 7.816,-1.87 10.662,-5.295l8.137,7.362c-4.391,5.492 -11.112,8.525 -19.441,8.525c-14.346,0 -24.871,-9.75 -24.871,-23.508Z" style="fill:#0c2b34;fill-rule:nonzero;"/><path d="M1583.53,257.513l-5.812,-14.471l-5.817,14.471l11.629,-0Zm3.75,9.429l-19.121,-0l-3.558,8.787l-13.042,0l19.958,-45.217l12.596,0l20.025,45.217l-13.308,0l-3.55,-8.787Z" style="fill:#0c2b34;fill-rule:nonzero;"/><path d="M1615.12,240.654l-13.888,0l0,-10.142l40.5,0l0,10.142l-13.82,0l-0,35.075l-12.792,0l-0,-35.075Z" style="fill:#0c2b34;fill-rule:nonzero;"/><rect x="1646.52" y="230.512" width="12.788" height="45.217" style="fill:#0c2b34;fill-rule:nonzero;"/><path d="M1703.43,253.121c0,-7.817 -5.362,-12.921 -12.212,-12.921c-6.846,0 -12.208,5.104 -12.208,12.921c-0,7.812 5.362,12.916 12.208,12.916c6.85,0 12.212,-5.104 12.212,-12.916Zm-37.337,-0c-0,-13.567 10.654,-23.517 25.125,-23.517c14.471,0 25.125,9.95 25.125,23.517c-0,13.562 -10.654,23.508 -25.125,23.508c-14.471,0 -25.125,-9.946 -25.125,-23.508Z" style="fill:#0c2b34;fill-rule:nonzero;"/><path d="M1766.1,230.512l-0,45.217l-10.534,0l-19.958,-24.096l0,24.096l-12.529,0l-0,-45.217l10.529,0l19.959,24.092l-0,-24.092l12.533,0Z" style="fill:#0c2b34;fill-rule:nonzero;"/><path d="M1817.37,1082.63c-0,0.596 -57.65,1.088 -128.759,1.088c-71.125,-0 -128.766,-0.492 -128.766,-1.088c-0,-0.6 57.641,-1.083 128.766,-1.083c71.109,0 128.759,0.483 128.759,1.083Z" style="fill:#0c2b34;fill-rule:nonzero;"/><path d="M1817.37,1118.97c-0,0.596 -57.65,1.083 -128.759,1.083c-71.125,0 -128.766,-0.487 -128.766,-1.083c-0,-0.6 57.641,-1.084 128.766,-1.084c71.109,0 128.759,0.484 128.759,1.084Z" style="fill:#0c2b34;fill-rule:nonzero;"/><path d="M1800.25,1276.83c-0.037,0 -0.104,-0.608 -0.2,-1.804c-0.092,-1.292 -0.221,-3.05 -0.379,-5.296c-0.071,-1.175 -0.158,-2.475 -0.246,-3.896c-0.154,-1.429 -0.471,-2.975 -0.725,-4.662c-0.542,-3.358 -1.054,-7.259 -2.35,-11.496c-1.983,-8.608 -6.033,-18.775 -12.4,-29.546c-6.421,-10.725 -15.675,-21.933 -28.258,-31.433c-12.55,-9.417 -28.379,-17.421 -46.65,-20.65c-18.142,-3.113 -38.625,-2.546 -58.129,4.866c-4.963,1.588 -9.625,4.046 -14.425,6.346c-4.546,2.746 -9.329,5.28 -13.563,8.717c-4.496,3.087 -8.425,6.95 -12.537,10.671c-3.721,4.116 -7.63,8.146 -10.838,12.821c-6.579,9.137 -12.325,19.295 -15.804,30.462c-3.604,11.1 -5.546,22.888 -5.704,34.883c0.158,12.001 2.096,23.792 5.696,34.896c3.475,11.175 9.225,21.334 15.804,30.48c3.208,4.67 7.116,8.704 10.837,12.82c4.117,3.725 8.046,7.584 12.542,10.671c4.233,3.442 9.021,5.975 13.562,8.721c4.8,2.304 9.467,4.763 14.43,6.35c19.508,7.412 39.991,7.979 58.137,4.867c18.271,-3.234 34.1,-11.242 46.646,-20.654c12.588,-9.509 21.838,-20.709 28.258,-31.434c6.363,-10.771 10.413,-20.941 12.396,-29.546c1.296,-4.237 1.808,-8.133 2.35,-11.5c0.254,-1.679 0.571,-3.225 0.725,-4.654c0.088,-1.425 0.175,-2.725 0.246,-3.9c0.158,-2.246 0.287,-4.004 0.379,-5.291c0.096,-1.192 0.163,-1.809 0.2,-1.809c0.038,0 0.046,0.617 0.021,1.813c-0.042,1.295 -0.096,3.058 -0.158,5.316c-0.046,1.179 -0.096,2.488 -0.146,3.925c-0.125,1.434 -0.404,2.992 -0.629,4.692c-0.475,3.392 -0.925,7.325 -2.167,11.617c-1.871,8.704 -5.842,19.008 -12.175,29.958c-6.392,10.9 -15.671,22.317 -28.371,32.033c-12.658,9.621 -28.687,17.838 -47.246,21.196c-18.425,3.25 -39.258,2.746 -59.15,-4.75c-5.054,-1.608 -9.812,-4.092 -14.704,-6.429c-4.637,-2.783 -9.516,-5.363 -13.833,-8.854c-4.588,-3.138 -8.604,-7.063 -12.8,-10.85c-3.8,-4.183 -7.784,-8.296 -11.063,-13.05c-6.716,-9.313 -12.587,-19.667 -16.137,-31.054c-3.684,-11.317 -5.659,-23.346 -5.821,-35.58c0.162,-12.224 2.142,-24.249 5.829,-35.566c3.554,-11.379 9.417,-21.734 16.138,-31.038c3.275,-4.758 7.262,-8.862 11.058,-13.05c4.2,-3.787 8.217,-7.704 12.8,-10.846c4.317,-3.491 9.196,-6.066 13.829,-8.849c4.892,-2.342 9.65,-4.826 14.704,-6.43c19.888,-7.491 40.721,-8 59.142,-4.754c18.558,3.363 34.587,11.571 47.246,21.196c12.704,9.712 21.983,21.129 28.375,32.029c6.337,10.95 10.304,21.259 12.179,29.963c1.237,4.287 1.692,8.225 2.167,11.616c0.225,1.696 0.504,3.254 0.629,4.696c0.05,1.433 0.1,2.742 0.146,3.921c0.062,2.258 0.116,4.021 0.158,5.321c0.025,1.2 0.017,1.808 -0.021,1.808Z" style="fill:#d5b24d;fill-rule:nonzero;"/><path d="M1760.38,1276.83c-0,39.638 -32.129,71.771 -71.767,71.771c-39.637,0 -71.766,-32.133 -71.766,-71.771c-0,-39.633 32.129,-71.767 71.766,-71.767c39.638,0 71.767,32.134 71.767,71.767Z" style="fill:#d3b24e;fill-rule:nonzero;"/><path d="M1490.96,1265.54c0,-0 -0.799,0.143 -2.361,0.331c-1.614,0.185 -3.92,0.451 -6.925,0.798c-6.137,0.668 -15.086,1.64 -26.563,2.889c-11.534,1.208 -25.601,2.683 -41.881,4.387c-4.078,0.294 -8.418,0.369 -12.64,-0.917c-4.234,-1.141 -8.12,-4.339 -10.02,-8.848c-0.926,-2.247 -1.411,-4.864 -0.875,-7.491c0.444,-2.563 2.037,-5.286 4.513,-6.442c2.377,-1.245 5.151,-1.409 7.62,-0.585c2.496,0.669 4.73,3.229 4.511,6.309l-0.005,0.111l-0.039,0.092c-3.17,7.779 -9.234,14.682 -16.921,18.816c-7.594,4.251 -17.056,5.49 -25.41,2.368c-8.306,-3.022 -15.624,-9.711 -19.138,-18.837c-1.757,-4.486 -2.709,-9.684 -1.46,-14.881c0.635,-2.547 1.938,-5.106 3.984,-6.894c2.008,-1.777 4.564,-2.941 7.208,-2.93c2.661,-0.037 5.21,1.566 6.465,3.974c1.29,2.41 1.477,5.257 1.223,7.942c-0.246,2.717 -1.055,5.375 -2.11,7.872c-0.447,1.291 -1.054,2.514 -1.702,3.719c-0.595,1.231 -1.26,2.425 -2.046,3.551c-5.926,9.215 -15.15,16.276 -25.456,19.562c-10.242,3.353 -21.912,2.715 -31.07,-3.237c-9.167,-5.833 -15.571,-15.94 -17.999,-27.248c-1.37,-6.459 -1.537,-13.312 -0.008,-19.875c1.573,-6.491 4.288,-12.936 9.088,-17.67c2.37,-2.33 5.349,-4.144 8.558,-4.671c3.16,-0.552 6.493,-0.023 9.104,1.865c2.688,1.85 4.024,5.253 4.221,8.478c0.247,3.274 -0.3,6.468 -0.887,9.579c-2.47,12.481 -8.291,24.181 -16.497,33.194c-8.11,9.106 -18.831,15.309 -29.825,17.122c-10.957,1.928 -21.997,-0.114 -30.857,-5.412c-4.424,-2.665 -8.297,-6.162 -11.271,-10.33c-2.982,-4.164 -5.04,-8.939 -6.239,-13.875c-2.405,-9.872 -1.495,-20.443 2.461,-29.348c1.959,-4.463 4.725,-8.42 7.962,-11.729c3.262,-3.182 7.467,-5.755 11.851,-5.47c2.125,0.206 4.178,0.917 5.795,2.279c1.585,1.395 2.669,3.23 3.428,5.144c1.455,3.89 1.639,8.06 1.305,12.001c-0.319,3.958 -1.318,7.789 -2.764,11.246c-0.701,1.735 -1.38,3.447 -2.186,5.07c-0.744,1.651 -1.536,3.247 -2.391,4.777c-6.646,12.352 -14.86,21.362 -22.176,27.651c-7.367,6.314 -13.888,9.985 -18.345,12.218c-2.229,1.136 -3.985,1.853 -5.17,2.325c-1.177,0.481 -1.792,0.688 -1.792,0.688c0,-0 0.586,-0.309 1.744,-0.838c1.164,-0.517 2.899,-1.279 5.104,-2.459c4.4,-2.314 10.846,-6.053 18.105,-12.394c7.217,-6.322 15.3,-15.32 21.815,-27.587c0.835,-1.518 1.608,-3.1 2.338,-4.74c0.789,-1.611 1.449,-3.307 2.138,-5.027c1.403,-3.41 2.343,-7.101 2.642,-10.961c0.307,-3.83 0.099,-7.872 -1.292,-11.526c-0.724,-1.796 -1.738,-3.479 -3.171,-4.729c-1.461,-1.219 -3.312,-1.844 -5.245,-2.034c-3.943,-0.25 -7.886,2.12 -11.014,5.194c-3.092,3.192 -5.767,7.033 -7.646,11.358c-3.808,8.631 -4.668,18.919 -2.303,28.499c1.178,4.787 3.188,9.409 6.075,13.424c2.878,4.011 6.64,7.398 10.933,9.967c8.61,5.118 19.363,7.093 30.021,5.192c10.678,-1.783 21.064,-7.805 28.974,-16.693c7.988,-8.798 13.671,-20.246 16.072,-32.422c0.576,-3.05 1.087,-6.15 0.855,-9.142c-0.204,-2.967 -1.352,-5.816 -3.646,-7.399c-2.239,-1.625 -5.229,-2.129 -8.067,-1.622c-2.858,0.469 -5.539,2.087 -7.748,4.254c-4.46,4.377 -7.122,10.606 -8.616,16.833c-1.468,6.302 -1.308,12.92 0.016,19.171c2.344,10.941 8.562,20.726 17.364,26.323c8.781,5.711 19.98,6.346 29.906,3.112c9.974,-3.171 18.922,-10.015 24.63,-18.887c0.764,-1.082 1.404,-2.231 1.976,-3.416c0.629,-1.16 1.214,-2.332 1.638,-3.57c1.029,-2.422 1.779,-4.9 2.015,-7.427c0.241,-2.498 0.038,-5.061 -1.049,-7.08c-1.068,-2.023 -3.105,-3.313 -5.327,-3.293c-2.223,-0.026 -4.498,0.987 -6.254,2.548c-1.784,1.549 -2.929,3.768 -3.523,6.102c-1.151,4.713 -0.297,9.683 1.389,13.984c3.339,8.743 10.387,15.226 18.363,18.146c8.019,3.018 17.068,1.864 24.424,-2.218c7.435,-3.967 13.312,-10.626 16.382,-18.094l-0.047,0.202c0.155,-2.469 -1.534,-4.527 -3.774,-5.172c-2.168,-0.748 -4.712,-0.598 -6.779,0.488c-2.144,0.994 -3.469,3.25 -3.912,5.582c-0.488,2.339 -0.063,4.739 0.789,6.835c1.784,4.23 5.334,7.225 9.392,8.343c4.029,1.257 8.268,1.218 12.302,0.948c16.276,-1.594 30.338,-2.972 41.868,-4.102c11.484,-1.106 20.434,-1.972 26.574,-2.563c3.01,-0.272 5.318,-0.477 6.933,-0.625c1.563,-0.131 2.368,-0.153 2.368,-0.153Z" style="fill:#0c2b34;fill-rule:nonzero;"/><path d="M1474.93,187.196c0,0.6 -88.141,1.087 -196.85,1.087c-108.742,0 -196.867,-0.487 -196.867,-1.087c0,-0.6 88.125,-1.084 196.867,-1.084c108.709,0 196.85,0.484 196.85,1.084Z" style="fill:#d7d9d9;fill-rule:nonzero;"/><path d="M1540.55,187.196c-0,0.6 -6.121,1.087 -13.671,1.087c-7.554,0 -13.675,-0.487 -13.675,-1.087c0,-0.6 6.121,-1.084 13.675,-1.084c7.55,0 13.671,0.484 13.671,1.084Z" style="fill:#d7d9d9;fill-rule:nonzero;"/><path d="M1932.45,187.196c-0,0.6 -80.392,1.087 -179.533,1.087c-99.18,0 -179.555,-0.487 -179.555,-1.087c0,-0.6 80.375,-1.084 179.555,-1.084c99.141,0 179.533,0.484 179.533,1.084Z" style="fill:#d7d9d9;fill-rule:nonzero;"/><path d="M1474.93,296.733c0,0.6 -88.141,1.088 -196.85,1.088c-108.742,-0 -196.867,-0.488 -196.867,-1.088c0,-0.596 88.125,-1.083 196.867,-1.083c108.709,-0 196.85,0.487 196.85,1.083Z" style="fill:#d7d9d9;fill-rule:nonzero;"/><path d="M1540.55,296.733c-0,0.6 -6.121,1.088 -13.671,1.088c-7.554,-0 -13.675,-0.488 -13.675,-1.088c0,-0.596 6.121,-1.083 13.675,-1.083c7.55,-0 13.671,0.487 13.671,1.083Z" style="fill:#d7d9d9;fill-rule:nonzero;"/><path d="M1932.45,296.733c-0,0.6 -80.392,1.088 -179.533,1.088c-99.18,-0 -179.555,-0.488 -179.555,-1.088c0,-0.596 80.375,-1.083 179.555,-1.083c99.141,-0 179.533,0.487 179.533,1.083Z" style="fill:#d7d9d9;fill-rule:nonzero;"/><path d="M2716.34,705.717c-0,-0 -49.675,203.466 -272.038,156.854c0,-0 64.446,-206.042 272.038,-156.854Z" style="fill:#1f4f3f;fill-rule:nonzero;"/><path d="M2608.9,1013.85c0,-0 -102.079,152.191 -270.721,46.946c0,-0 114.988,-149.867 270.721,-46.946Z" style="fill:#1f4f3f;fill-rule:nonzero;"/><path d="M2446.26,1246.03c-0,0 -148.934,126.654 -291.563,-30.304c-0,0 161.512,-120.529 291.563,30.304Z" style="fill:#1f4f3f;fill-rule:nonzero;"/><path d="M2288.55,753.767c-0,-0 165.179,79.366 85.017,261.275c-0,-0 -164.713,-92.471 -85.017,-261.275Z" style="fill:#1f4f3f;fill-rule:nonzero;"/><path d="M2252.7,973.079c-0,0 82.375,111.217 -40.379,206.771c-0,0 -77.138,-119.95 40.379,-206.771Z" style="fill:#1f4f3f;fill-rule:nonzero;"/><path d="M2634.75,467.779c-0,0 18.946,164.921 -159.179,191.338c-0,-0 -8.675,-170.892 159.179,-191.338Z" style="fill:#1f4f3f;fill-rule:nonzero;"/><path d="M2379.28,300.925c0,-0 144.083,60.175 81.504,229.025c0,-0 -144.375,-72.054 -81.504,-229.025Z" style="fill:#1f4f3f;fill-rule:nonzero;"/><path d="M2292.32,541.879c-0,0 190.771,21.763 173.971,229.371c-0,0 -194.821,-34.9 -173.971,-229.371Z" style="fill:#1f4f3f;fill-rule:nonzero;"/><path d="M2020.86,1266.57c0,-0 0.813,-0.275 2.417,-0.717c1.692,-0.446 4.058,-1.075 7.142,-1.896c6.279,-1.654 15.604,-3.845 27.329,-7.687c23.533,-7.217 57.237,-19.463 96.029,-40.421c38.804,-20.804 82.208,-51.063 124.425,-91.217c21.104,-20.066 41.8,-42.662 61.479,-67.504c4.729,-6.358 9.496,-12.766 14.308,-19.229c2.401,-3.233 4.809,-6.479 7.225,-9.737c2.334,-3.321 4.471,-6.796 6.73,-10.209c4.466,-6.85 8.966,-13.754 13.491,-20.704c4.117,-7.204 8.263,-14.45 12.429,-21.742c2.071,-3.654 4.138,-7.3 6.196,-10.929c1.85,-3.746 3.696,-7.479 5.534,-11.2c3.65,-7.45 7.387,-14.8 10.895,-22.191c3.192,-7.53 6.367,-15.009 9.513,-22.43c1.55,-3.716 3.192,-7.383 4.646,-11.104c1.346,-3.762 2.687,-7.504 4.025,-11.237c2.671,-7.459 5.321,-14.85 7.946,-22.175c2.204,-7.459 4.387,-14.846 6.546,-22.155c1.083,-3.658 2.158,-7.291 3.229,-10.908c1.087,-3.608 1.783,-7.304 2.687,-10.916c1.709,-7.263 3.4,-14.438 5.067,-21.525c12.5,-56.955 15.262,-109.759 14.183,-153.746c-1.008,-44.125 -7.416,-79.367 -11.591,-103.625c-2.592,-12.05 -4.896,-21.346 -6.292,-27.688c-0.696,-3.112 -1.229,-5.508 -1.608,-7.208c-0.35,-1.633 -0.48,-2.479 -0.48,-2.479c0,-0 0.271,0.808 0.692,2.416c0.433,1.696 1.033,4.071 1.821,7.163c1.533,6.312 3.975,15.587 6.696,27.625c4.433,24.241 11.087,59.521 12.3,103.746c1.275,44.087 -1.334,97.058 -13.767,154.212c-1.662,7.113 -3.342,14.317 -5.042,21.6c-0.904,3.629 -1.596,7.333 -2.683,10.958c-1.067,3.63 -2.138,7.28 -3.217,10.946c-2.162,7.338 -4.341,14.75 -6.541,22.238c-2.625,7.346 -5.275,14.767 -7.95,22.254c-1.338,3.742 -2.68,7.504 -4.029,11.279c-1.455,3.733 -3.105,7.413 -4.655,11.146c-3.154,7.446 -6.329,14.95 -9.533,22.508c-3.521,7.417 -7.263,14.796 -10.925,22.275c-1.842,3.734 -3.696,7.48 -5.55,11.234c-2.062,3.646 -4.137,7.304 -6.217,10.971c-4.183,7.316 -8.341,14.591 -12.475,21.816c-4.546,6.971 -9.062,13.9 -13.546,20.775c-2.266,3.425 -4.416,6.909 -6.758,10.238c-2.429,3.271 -4.85,6.529 -7.258,9.771c-4.838,6.483 -9.625,12.912 -14.379,19.287c-19.759,24.904 -40.55,47.542 -61.763,67.633c-42.425,40.2 -86.067,70.429 -125.075,91.117c-38.996,20.846 -72.867,32.896 -96.512,39.875c-11.784,3.729 -21.154,5.788 -27.467,7.308c-3.108,0.729 -5.5,1.292 -7.2,1.688c-1.621,0.371 -2.467,0.5 -2.467,0.5Z" style="fill:#0c2b34;fill-rule:nonzero;"/><path d="M2234.86,1062.75c0.15,0.021 0.088,1.679 -0.15,4.667c-0.233,2.983 -0.683,7.295 -1.337,12.604c-1.292,10.625 -3.492,25.258 -6.621,41.296c-3.138,16.037 -6.612,30.425 -9.408,40.754c-1.4,5.17 -2.6,9.329 -3.513,12.183c-0.9,2.854 -1.471,4.412 -1.612,4.375c-0.146,-0.042 0.145,-1.675 0.8,-4.596c0.771,-3.367 1.72,-7.483 2.833,-12.337c2.417,-10.404 5.646,-24.805 8.775,-40.8c3.117,-15.988 5.55,-30.542 7.229,-41.092c0.788,-4.912 1.467,-9.079 2.013,-12.496c0.5,-2.95 0.845,-4.575 0.991,-4.558Z" style="fill:#86ba40;fill-rule:nonzero;"/><path d="M2339.77,1233.97c-0.046,0.208 -2.617,-0.018 -7.24,-0.614c-5.323,-0.721 -11.842,-1.602 -19.525,-2.645c-16.477,-2.27 -39.255,-5.273 -64.476,-8.019c-25.24,-2.735 -48.153,-4.689 -64.753,-6.006c-7.727,-0.638 -14.291,-1.174 -19.659,-1.609c-4.636,-0.411 -7.195,-0.744 -7.182,-0.959c0,-0.208 2.591,-0.292 7.252,-0.25c4.668,0.036 11.418,0.244 19.756,0.625c16.671,0.763 39.667,2.378 64.972,5.118c25.292,2.753 48.076,6.107 64.476,8.937c8.204,1.406 14.826,2.651 19.371,3.617c4.552,0.959 7.052,1.59 7.008,1.805Z" style="fill:#86ba40;fill-rule:nonzero;"/><path d="M2504.1,1023.62c0.031,0.156 -2.325,0.656 -6.606,1.42c-4.776,0.844 -10.847,1.915 -18.113,3.192c-15.288,2.697 -36.362,6.627 -59.462,11.619c-23.109,5.006 -43.863,10.123 -58.841,13.977c-7.111,1.835 -13.057,3.363 -17.738,4.568c-4.196,1.068 -6.541,1.581 -6.602,1.434c-0.055,-0.152 2.186,-0.965 6.292,-2.296c4.1,-1.339 10.082,-3.152 17.518,-5.278c14.858,-4.26 35.592,-9.645 58.756,-14.664c23.16,-5.006 44.349,-8.694 59.747,-10.976c7.701,-1.148 13.947,-1.987 18.278,-2.465c4.331,-0.491 6.741,-0.692 6.771,-0.531Z" style="fill:#86ba40;fill-rule:nonzero;"/><path d="M2315.82,840.962c0.168,-0.095 1.78,2.062 4.551,6.052c2.816,3.965 6.567,9.883 10.888,17.338c8.676,14.891 19.077,36.284 27.054,60.942c7.921,24.678 11.851,47.729 13.368,64.457c0.772,8.37 1.119,15.156 1.097,19.85c0.028,4.694 -0.051,7.286 -0.258,7.291c-0.201,0.005 -0.498,-2.582 -0.873,-7.251c-0.325,-4.664 -0.991,-11.41 -2.015,-19.71c-2.032,-16.594 -6.253,-39.419 -14.123,-63.923c-7.921,-24.474 -17.93,-45.811 -26.097,-60.837c-4.064,-7.52 -7.524,-13.548 -10.026,-17.657c-2.457,-4.13 -3.745,-6.462 -3.566,-6.552Z" style="fill:#86ba40;fill-rule:nonzero;"/><path d="M2602.61,780.051c0.117,0.122 -2.212,1.159 -6.514,2.92c-4.82,2.004 -10.889,4.523 -18.119,7.526c-15.228,6.414 -35.869,15.661 -57.517,26.803c-21.642,11.165 -40.145,22.087 -53.166,30.23c-6.124,3.875 -11.254,7.129 -15.333,9.715c-3.602,2.307 -5.679,3.541 -5.84,3.447c-0.166,-0.094 1.595,-1.509 4.92,-3.989c3.306,-2.488 8.299,-5.978 14.634,-10.191c12.656,-8.43 31.005,-19.583 52.758,-30.804c21.766,-11.196 42.716,-20.306 58.314,-26.429c7.787,-3.066 14.189,-5.447 18.713,-6.988c4.499,-1.556 7.045,-2.362 7.15,-2.24Z" style="fill:#85b920;fill-rule:nonzero;"/><path d="M2343.33,624.604c0.055,-0.054 0.592,0.363 1.567,1.2c1.15,1.025 2.533,2.263 4.204,3.746c3.625,3.275 8.754,8.15 14.983,14.279c12.475,12.25 29.167,29.742 46.488,50.042c17.3,20.329 31.921,39.587 42.033,53.841c5.067,7.126 9.063,12.963 11.721,17.067c1.204,1.879 2.2,3.442 3.033,4.742c0.675,1.1 1,1.696 0.934,1.737c-0.063,0.042 -0.504,-0.47 -1.292,-1.491c-0.925,-1.234 -2.033,-2.717 -3.366,-4.509c-3.105,-4.208 -7.242,-9.825 -12.263,-16.641c-10.421,-14 -25.192,-33.059 -42.454,-53.338c-17.275,-20.254 -33.746,-37.862 -45.917,-50.371c-5.933,-6.037 -10.825,-11.016 -14.487,-14.75c-1.555,-1.6 -2.846,-2.933 -3.917,-4.037c-0.879,-0.942 -1.317,-1.463 -1.267,-1.517Z" style="fill:#86ba40;fill-rule:nonzero;"/><path d="M2573.09,521.387c0.108,0.101 -1.359,1.934 -4.104,5.15c-2.98,3.521 -6.871,8.126 -11.563,13.671c-9.696,11.588 -22.733,27.9 -36.15,46.646c-13.404,18.763 -24.621,36.379 -32.454,49.304c-3.729,6.234 -6.825,11.405 -9.192,15.363c-2.158,3.637 -3.412,5.617 -3.55,5.546c-0.129,-0.071 0.875,-2.188 2.808,-5.955c1.921,-3.775 4.855,-9.158 8.613,-15.733c7.508,-13.154 18.567,-30.962 32.008,-49.787c13.463,-18.805 26.734,-35.021 36.75,-46.384c5.009,-5.683 9.15,-10.2 12.104,-13.237c2.942,-3.05 4.617,-4.683 4.73,-4.584Z" style="fill:#86ba40;fill-rule:nonzero;"/><path d="M2400.61,364.821c0.138,-0.059 1.2,2.096 3.005,6.046c1.804,3.941 4.316,9.695 7.337,16.837c6.054,14.283 14.05,34.171 22.275,56.367c8.217,22.212 15.087,42.521 19.796,57.3c2.358,7.387 4.192,13.391 5.387,17.562c1.205,4.167 1.804,6.492 1.663,6.538c-0.15,0.046 -1.017,-2.192 -2.463,-6.279c-1.554,-4.455 -3.591,-10.288 -6.046,-17.338c-5.07,-14.646 -12.166,-34.846 -20.37,-57.029c-8.213,-22.171 -15.979,-42.121 -21.659,-56.542c-2.725,-6.946 -4.983,-12.704 -6.704,-17.091c-1.558,-4.046 -2.358,-6.313 -2.221,-6.371Z" style="fill:#86ba40;fill-rule:nonzero;"/><path d="M221.383,660.425c0,0 46.942,192.267 257.071,148.221c0,-0 -60.9,-194.704 -257.071,-148.221Z" style="fill:#1c4e3f;fill-rule:nonzero;"/><path d="M322.904,951.6c0,0 96.467,143.821 255.829,44.363c0,-0 -108.658,-141.625 -255.829,-44.363Z" style="fill:#1f4f3f;fill-rule:nonzero;"/><path d="M476.6,1171.01c0,0 140.746,119.688 275.521,-28.633c-0,0 -152.625,-113.896 -275.521,28.633Z" style="fill:#1f4f3f;fill-rule:nonzero;"/><path d="M625.642,705.829c-0,0 -156.096,75 -80.338,246.9c0,0 155.65,-87.387 80.338,-246.9Z" style="fill:#1f4f3f;fill-rule:nonzero;"/><path d="M659.521,913.075c-0,0 -77.842,105.1 38.158,195.396c0,-0 72.892,-113.35 -38.158,-195.396Z" style="fill:#1f4f3f;fill-rule:nonzero;"/><path d="M298.483,435.575c0,-0 -17.904,155.846 150.425,180.808c0,0 8.2,-161.487 -150.425,-180.808Z" style="fill:#1f4f3f;fill-rule:nonzero;"/><path d="M539.9,277.9c0,0 -136.154,56.867 -77.017,216.425c0,0 136.43,-68.088 77.017,-216.425Z" style="fill:#1f4f3f;fill-rule:nonzero;"/><path d="M622.075,505.596c0,-0 -180.275,20.571 -164.4,216.754c0,0 184.1,-32.979 164.4,-216.754Z" style="fill:#1f4f3f;fill-rule:nonzero;"/><path d="M918.113,1203.78c-0,0 -0.838,-0.121 -2.442,-0.471c-1.684,-0.379 -4.046,-0.912 -7.121,-1.6c-6.246,-1.458 -15.517,-3.404 -27.208,-6.871c-23.459,-6.495 -57.171,-17.429 -96.563,-36.204c-19.775,-9.196 -40.733,-20.75 -62.483,-34.321c-21.838,-13.462 -44,-29.708 -66.129,-48.191c-22.092,-18.525 -43.975,-39.58 -64.621,-63.238c-5.013,-6.041 -10.071,-12.129 -15.171,-18.275c-4.912,-6.287 -9.6,-12.833 -14.467,-19.312c-2.416,-3.254 -4.841,-6.521 -7.275,-9.796c-2.229,-3.421 -4.47,-6.85 -6.716,-10.292c-4.434,-6.916 -9.125,-13.741 -13.425,-20.867c-8.184,-14.495 -16.7,-28.595 -23.509,-43.329c-7.537,-14.379 -13.441,-29.237 -19.591,-43.679c-11.238,-29.296 -20.746,-58.133 -26.934,-86.325c-13.179,-56.192 -17.154,-108.408 -16.041,-151.975c1.096,-43.646 6.941,-78.579 11.529,-102.487c2.504,-11.921 5.05,-21.05 6.521,-27.292c0.775,-3.05 1.375,-5.396 1.796,-7.067c0.416,-1.591 0.687,-2.391 0.687,-2.391c-0,-0 -0.125,0.837 -0.471,2.45c-0.375,1.683 -0.904,4.041 -1.587,7.116c-1.334,6.271 -3.746,15.421 -6.117,27.35c-4.329,23.925 -9.925,58.817 -10.825,102.354c-0.917,43.459 3.208,95.501 16.454,151.484c6.217,28.087 15.742,56.817 26.963,85.996c6.141,14.383 12.033,29.191 19.55,43.508c6.787,14.679 15.279,28.725 23.433,43.167c4.283,7.096 8.954,13.891 13.375,20.787c2.233,3.429 4.463,6.846 6.683,10.254c2.425,3.267 4.838,6.517 7.246,9.763c4.846,6.454 9.513,12.983 14.4,19.25c5.075,6.121 10.108,12.192 15.096,18.217c20.55,23.587 42.325,44.595 64.304,63.1c22.021,18.458 44.071,34.708 65.8,48.199c21.646,13.596 42.504,25.196 62.188,34.459c39.204,18.9 72.775,30.042 96.133,36.779c11.638,3.583 20.863,5.663 27.075,7.25c3.05,0.783 5.396,1.383 7.067,1.812c1.591,0.421 2.396,0.688 2.396,0.688Z" style="fill:#0c2b34;fill-rule:nonzero;"/><path d="M676.375,997.808c0.15,-0.012 0.483,1.521 0.958,4.309c0.534,3.258 1.171,7.196 1.921,11.804c1.6,9.967 3.904,23.717 6.854,38.825c2.954,15.117 5.996,28.725 8.267,38.558c1.042,4.554 1.929,8.438 2.667,11.663c0.608,2.758 0.875,4.304 0.729,4.346c-0.146,0.037 -0.688,-1.434 -1.546,-4.13c-0.867,-2.695 -2.008,-6.625 -3.338,-11.504c-2.658,-9.762 -5.945,-23.358 -8.912,-38.512c-2.954,-15.159 -5.025,-28.988 -6.238,-39.034c-0.608,-5.021 -1.029,-9.091 -1.241,-11.916c-0.217,-2.821 -0.271,-4.388 -0.121,-4.409Z" style="fill:#335863;fill-rule:nonzero;"/><path d="M638.033,1153.9c-0.025,-0.15 1.5,-0.571 4.288,-1.212c2.787,-0.646 6.837,-1.475 11.862,-2.413c10.046,-1.879 24,-4.104 39.488,-5.925c15.5,-1.808 29.591,-2.871 39.8,-3.362c5.104,-0.251 9.237,-0.38 12.096,-0.392c2.858,-0.021 4.441,0.037 4.45,0.187c0.008,0.15 -1.563,0.375 -4.404,0.655c-3.321,0.295 -7.334,0.658 -12.038,1.083c-10.162,0.883 -24.192,2.179 -39.65,3.987c-15.45,1.813 -29.396,3.792 -39.492,5.284c-4.675,0.675 -8.662,1.25 -11.962,1.729c-2.829,0.383 -4.409,0.525 -4.438,0.379Z" style="fill:#335863;fill-rule:nonzero;"/><path d="M412.537,961.636c0.027,-0.153 2.438,0.022 6.777,0.471c4.34,0.436 10.598,1.199 18.307,2.25c15.425,2.102 36.641,5.495 59.833,10.117c23.198,4.631 43.948,9.607 58.827,13.549c7.445,1.967 13.432,3.646 17.533,4.893c4.107,1.234 6.348,1.989 6.29,2.137c-0.064,0.148 -2.416,-0.318 -6.618,-1.3c-4.732,-1.112 -10.682,-2.52 -17.767,-4.19c-15,-3.546 -35.777,-8.264 -58.916,-12.887c-23.129,-4.605 -44.223,-8.237 -59.531,-10.736c-7.233,-1.182 -13.305,-2.176 -18.133,-2.961c-4.281,-0.715 -6.634,-1.186 -6.602,-1.343Z" style="fill:#86ba40;fill-rule:nonzero;"/><path d="M586.108,815.754c0.13,0.079 -0.766,1.921 -2.491,5.183c-1.754,3.242 -4.179,7.996 -7.038,13.926c-5.729,11.854 -12.762,28.674 -18.333,47.97c-5.533,19.313 -8.509,37.309 -9.946,50.392c-0.729,6.542 -1.204,11.858 -1.438,15.538c-0.27,3.679 -0.491,5.716 -0.641,5.712c-0.15,-0.004 -0.213,-2.046 -0.204,-5.75c-0.021,-3.7 0.216,-9.054 0.754,-15.65c1.054,-13.192 3.812,-31.375 9.387,-50.842c5.617,-19.445 12.938,-36.316 19.05,-48.054c3.046,-5.875 5.692,-10.537 7.675,-13.662c1.954,-3.142 3.096,-4.838 3.225,-4.763Z" style="fill:#86ba40;fill-rule:nonzero;"/><path d="M317.861,721.108c0.119,-0.137 2.702,0.707 7.283,2.357c4.587,1.632 11.094,4.158 19.014,7.418c15.841,6.506 37.126,16.188 59.22,28.099c22.082,11.934 40.711,23.801 53.551,32.775c6.427,4.485 11.485,8.2 14.832,10.854c3.372,2.645 5.145,4.153 4.972,4.259c-0.179,0.107 -2.29,-1.198 -5.955,-3.649c-4.189,-2.773 -9.401,-6.223 -15.589,-10.318c-13.231,-8.652 -32.02,-20.258 -53.982,-32.129c-21.981,-11.85 -42.928,-21.687 -58.37,-28.52c-7.296,-3.18 -13.444,-5.865 -18.384,-8.019c-4.355,-1.88 -6.712,-2.99 -6.592,-3.127Z" style="fill:#86ba40;fill-rule:nonzero;"/><path d="M573.867,583.771c0.104,0.108 -1.642,1.979 -4.879,5.266c-3.484,3.555 -8.096,8.259 -13.676,13.951c-11.491,11.829 -27.054,28.47 -43.379,47.608c-16.308,19.162 -30.271,37.166 -40.129,50.391c-4.733,6.413 -8.646,11.713 -11.6,15.717c-2.733,3.717 -4.3,5.738 -4.425,5.654c-0.125,-0.087 1.209,-2.266 3.729,-6.137c2.509,-3.879 6.28,-9.4 11.059,-16.138c9.554,-13.479 23.362,-31.683 39.716,-50.896c16.367,-19.187 32.15,-35.708 43.938,-47.279c5.896,-5.787 10.746,-10.387 14.179,-13.479c3.425,-3.104 5.363,-4.766 5.467,-4.658Z" style="fill:#86ba40;fill-rule:nonzero;"/><path d="M356.75,486.233c0.108,-0.1 1.7,1.438 4.483,4.317c2.796,2.863 6.717,7.129 11.45,12.496c9.48,10.729 22.03,26.054 34.75,43.825c12.709,17.792 23.15,34.625 30.238,47.062c3.546,6.213 6.312,11.304 8.116,14.875c1.821,3.567 2.767,5.567 2.634,5.642c-0.129,0.071 -1.325,-1.796 -3.371,-5.229c-2.258,-3.771 -5.187,-8.646 -8.704,-14.509c-7.409,-12.208 -18.017,-28.849 -30.679,-46.579c-12.679,-17.712 -24.992,-33.129 -34.146,-44.087c-4.413,-5.225 -8.079,-9.571 -10.913,-12.933c-2.591,-3.042 -3.97,-4.78 -3.858,-4.88Z" style="fill:#86ba40;fill-rule:nonzero;"/><path d="M519.742,338.279c0.137,0.058 -0.609,2.204 -2.075,6.029c-1.638,4.184 -3.763,9.621 -6.317,16.159c-5.358,13.633 -12.692,32.487 -20.45,53.441c-7.75,20.959 -14.462,40.046 -19.271,53.88c-2.316,6.629 -4.242,12.137 -5.725,16.379c-1.375,3.858 -2.204,5.97 -2.35,5.925c-0.141,-0.042 0.417,-2.246 1.546,-6.184c1.125,-3.945 2.854,-9.62 5.075,-16.604c4.437,-13.971 10.929,-33.162 18.692,-54.15c7.766,-20.979 15.333,-39.771 21.062,-53.267c2.863,-6.745 5.242,-12.183 6.959,-15.908c1.708,-3.725 2.716,-5.758 2.854,-5.7Z" style="fill:#86ba40;fill-rule:nonzero;"/><path d="M919.381,533.812c30.366,3.929 50.216,25.702 61.466,51.803c11.25,26.095 15.999,59.393 32.553,82.768c8.754,12.359 20.687,23.454 23.85,38.125c3.308,15.346 2.279,25.644 -1.008,41.286c-3.292,15.641 7.739,52.721 34.625,65.981c-0.84,1.011 -10.355,2.368 -12.456,3.568c-5.967,3.408 -6.089,7.353 3.065,12.511c-10.389,8.84 -27.572,4.763 -35.323,4.246c-7.827,-0.522 -7.397,3.985 1.222,12.002c2.471,2.299 -9.987,2.011 -19.588,-0.858c-5.206,-1.556 -9.356,-5.199 -11.977,-5.405c-3.056,-0.239 0.291,4.94 5.474,8.882c4.447,3.382 11.257,5.247 8.716,6.428c-21.584,10.024 -36.563,-4.465 -42.125,-3.253c-12.346,2.684 -16.153,0.773 -28.641,2.573c-17.15,2.475 -22.197,10.446 -39.118,14.275c-7.963,1.805 -28.582,1.371 -29.088,1.928c-5.184,5.705 -26.078,-8.419 -28.898,-14.607c-9.079,11.446 -34.912,27.634 -49.699,30.688c2.158,-5.104 -6.634,-8.6 -10.504,-12.458c-1.65,1.355 -9.815,12.933 -17.626,15.121c-7.216,2.022 -1.994,-0.974 -0.749,-6.17c0.858,-3.579 3.698,-8.307 -0.689,-18.369c-2.153,-4.937 -2.263,6.928 -9.869,13.918c-3.182,2.923 -15.74,3.985 -17.392,4.223c6.4,-5.946 6.187,-14.182 5.671,-22.336c-2.175,1.749 -5.089,3.297 -9.323,5.198c-11.778,5.286 -22.423,-0.164 -28.088,-1.656c15.275,-8.683 38.07,-40.441 32.654,-55.637c-5.421,-15.192 -6.427,-32.563 -8.452,-48.592c-2.204,-17.446 12.105,-35.182 8.093,-52.324c-3.898,-16.66 7.135,-31.313 11.033,-46.508c2.281,-8.892 -0.514,-21.485 -0.12,-30.582c0.7,-16.142 12.167,-27.977 19.259,-43.023c8.971,-19.02 21.188,-32.925 40.421,-43.766c16.117,-9.092 39.363,-17.421 57.85,-17.825c32.888,-0.721 40.665,-4.47 66.707,12.951" style="fill:#8e410a;fill-rule:nonzero;"/><path d="M816.483,749.554c-10.216,-21.266 -20.366,-42.712 -26.77,-65.421c-6.405,-22.704 -8.946,-46.929 -3.746,-69.946c0.787,-3.487 8.316,-27.191 11.891,-27.32c2.559,-0.088 -1.133,21.579 0.434,23.595c14.979,19.259 21.662,43.942 22.958,68.305c1.296,24.362 -0.804,46.716 -4.767,70.787Z" style="fill:#0c2b34;fill-rule:nonzero;"/><path d="M960.404,949.137c-36.35,4.109 -123.854,-34.074 -128.75,-70.325l-29.467,-218.162c-9.779,-58.354 16.03,-112.688 74.634,-120.85l5.458,-0.442c54.963,-4.412 102.935,34.325 112.9,88.555c9.551,51.971 16.881,96.526 17.957,123.106c2.297,56.734 -51.561,80.881 -51.561,80.881c-0.125,0.017 1.442,13.079 3.488,29.617c4.599,37.15 -1.296,77.887 -4.659,87.62Z" style="fill:#f9b299;fill-rule:nonzero;"/><path d="M962.526,831.254c-0,-0 -36.455,5.604 -76.384,-15.229c-0,-0 21.141,41.129 77.204,31.504l-0.82,-16.275Z" style="fill:#f79570;fill-rule:nonzero;"/><path d="M810.171,702.187c-0.996,-0.341 -39.809,-8.383 -35.467,30.209c4.338,38.592 42.188,26.275 42.134,25.162c-0.059,-1.116 -6.667,-55.371 -6.667,-55.371Z" style="fill:#f9b299;fill-rule:nonzero;"/><path d="M984.403,597.901c6.182,-4.2 -39.625,-53.001 -56.808,-58.097c-25.966,-7.7 -64.384,-9.879 -86.293,-1.225c-17.31,6.835 -32.323,15.811 -43.623,28.235c-5.922,6.511 -10.825,13.969 -14.504,22.561c-10.696,24.979 -12.338,52.85 -8.094,79.488c1.292,8.124 12.523,22.309 15.146,30.316c2.06,6.285 20.592,-3.393 21.627,8.42c0.381,4.312 6.46,49.276 9.996,52.051c8.456,6.65 7.673,-19.256 8.393,-27.393c1.777,-20.111 9.153,-39.247 7.715,-56.635c-1.026,-12.362 6.889,-30.198 27.33,-45.913c19.081,-14.671 61.201,-41.688 70.534,-50.23c13.43,-12.292 16.076,-19.608 16.076,-19.608l32.505,38.03Z" style="fill:#8e431f;fill-rule:nonzero;"/><path d="M811.421,707.212c0.317,0.676 0.633,1.384 0.95,2.167c-0,0 -0.359,-0.771 -0.95,-2.167Z" style="fill:#f37368;fill-rule:nonzero;"/><path d="M800.682,701.292c-0,-0 5.666,-1.193 11.99,10.759c-0.948,-6.447 -1.403,-7.436 -2.364,-10.662c-16.573,-55.675 -23.136,-149.012 115.992,-166.138c-0,-0 -3.814,-8.465 -29.18,-7.179c-23.37,1.185 -57.758,10.372 -73.077,23.004c0,-0 -74.832,38.195 -23.361,150.216Z" style="fill:#2e7d93;fill-rule:nonzero;"/><path d="M1078.52,1391.87l-340.733,4.641c-0,0 -95.284,-39.875 -121.463,-40.941c-26.179,-1.075 -78.142,2.254 -102.179,40.941c-24.846,39.992 -28.317,110.542 48.25,161.813c74.558,49.925 415.521,96.062 462.258,91.817l86.159,-115.65c-0,-0 0.9,-94.78 -0,-99.292c-0.905,-4.513 -15.346,-45.134 -15.346,-45.134l-16.946,1.805Z" style="fill:#0c2b34;fill-rule:nonzero;"/><path d="M874.55,1551.87l-176.542,65.571l80.463,220.062c20.55,-8.975 21.129,-138.254 21.129,-138.254l114.833,-37.371l-39.883,-110.008Z" style="fill:#2e7d93;fill-rule:nonzero;"/><path d="M777.667,1641.73c-3.259,-0 -6.779,-1.575 -8.492,-4.075c-2.654,-3.883 -1.392,-9.833 2.55,-12.4c1.421,-0.921 3.092,-1.354 4.775,-1.354c2.692,-0 5.412,1.108 7.2,3.121c3.483,3.137 2.379,10.191 -1.242,13.171c-1.291,1.062 -3,1.537 -4.791,1.537Z" style="fill:#f9bab8;fill-rule:nonzero;"/><path d="M698.008,1617.44l17.821,-6.617l70.629,213.904c0,0 -0.683,11.358 -7.987,12.775l-80.463,-220.062Z" style="fill:#0c2b34;fill-rule:nonzero;"/><path d="M802.021,1702.4c-1.083,0.358 -3.538,-4.833 -8.925,-8.858c-5.284,-4.167 -10.934,-5.188 -10.871,-6.338c-0.154,-1.062 6.858,-1.808 13.296,3.175c6.479,4.93 7.575,11.896 6.5,12.021Z" style="fill:#0c2b34;fill-rule:nonzero;"/><path d="M800.917,1728.98c-0.95,0.625 -4.479,-3.358 -10.363,-5.342c-5.816,-2.162 -11.071,-1.287 -11.412,-2.375c-0.538,-0.945 5.483,-3.996 12.745,-1.383c7.284,2.55 10.046,8.704 9.03,9.1Z" style="fill:#0c2b34;fill-rule:nonzero;"/><path d="M778.087,1752.19c-0.587,-0.895 4.234,-4.354 11.13,-3.741c6.896,0.558 11.071,4.775 10.341,5.558c-0.662,0.925 -5.012,-1.179 -10.679,-1.591c-5.654,-0.546 -10.3,0.799 -10.792,-0.226Z" style="fill:#0c2b34;fill-rule:nonzero;"/><path d="M827.25,1690.98c-1.142,-0.091 -1.467,-5.562 -4.096,-11.483c-2.516,-5.979 -6.283,-9.963 -5.567,-10.858c0.55,-0.9 6.213,2.254 9.221,9.275c3.055,6.996 1.48,13.287 0.442,13.066Z" style="fill:#0c2b34;fill-rule:nonzero;"/><path d="M851.442,1676.2c-0.438,0.175 -2.659,-3.829 -3.971,-11.038c-0.65,-3.595 -1,-7.979 -0.675,-12.829c0.166,-2.425 0.5,-4.962 1.042,-7.558c0.283,-1.25 0.499,-2.696 1.379,-4.271c0.683,-1.6 3.287,-3.321 5.533,-2.588c2.104,0.509 3.562,2.238 4.179,3.809c0.646,1.604 0.8,3.042 0.942,4.346c0.3,2.666 0.329,5.262 0.154,7.712c-0.375,4.904 -1.546,9.204 -2.954,12.6c-2.863,6.833 -6.238,10.046 -6.579,9.754c-0.534,-0.358 1.92,-4.071 3.925,-10.695c0.991,-3.301 1.791,-7.346 1.945,-11.855c0.063,-2.254 -0.037,-4.621 -0.366,-7.037c-0.238,-2.559 -0.946,-4.546 -2.204,-4.767c-0.475,-0.071 -0.642,-0.042 -1.142,0.696c-0.446,0.733 -0.717,1.9 -1,3.137c-0.558,2.409 -0.946,4.775 -1.2,7.042c-0.5,4.529 -0.458,8.679 -0.187,12.146c0.545,6.95 1.766,11.204 1.179,11.396Z" style="fill:#0c2b34;fill-rule:nonzero;"/><path d="M849.392,1675.36c-0.309,-0.321 2.766,-3.863 9.579,-6.8c3.387,-1.446 7.7,-2.617 12.616,-2.909c2.459,-0.133 5.059,-0.037 7.717,0.363c2.646,0.491 6.134,1.004 8.138,4.995c0.875,2.146 -0.163,4.575 -1.392,5.725c-1.225,1.271 -2.45,1.884 -3.625,2.609c-2.425,1.342 -4.962,2.217 -7.421,2.721c-4.937,1.021 -9.537,0.529 -13.108,-0.546c-7.275,-2.213 -10.196,-6.229 -9.867,-6.454c0.409,-0.555 3.854,2.433 10.538,3.721c3.291,0.633 7.383,0.775 11.629,-0.3c2.117,-0.53 4.266,-1.35 6.296,-2.534c2.212,-1.2 3.779,-2.767 3.216,-3.55c-0.379,-1.104 -2.821,-2.321 -5.016,-2.537c-2.388,-0.409 -4.734,-0.567 -6.975,-0.546c-4.48,0.075 -8.509,0.867 -11.775,1.887c-6.571,2.059 -10.175,4.68 -10.55,4.155Z" style="fill:#0c2b34;fill-rule:nonzero;"/><path d="M1020.18,1524.67l170.842,79.242l-97.505,213.054c-19.783,-10.558 -10.2,-139.479 -10.2,-139.479l-111.545,-46.284l48.408,-106.533Z" style="fill:#2e7d93;fill-rule:nonzero;"/><path d="M1110.52,1621.9c-2.092,0 -4.096,-0.604 -5.479,-1.937c-3.375,-3.255 -3.921,-10.363 -0.217,-13.221c1.754,-1.692 4.217,-2.588 6.658,-2.588c1.946,0 3.88,0.571 5.429,1.763c3.73,2.858 4.521,8.891 1.571,12.554c-1.746,2.162 -4.941,3.429 -7.962,3.429Z" style="fill:#f9bab8;fill-rule:nonzero;"/><path d="M1191.02,1603.92l-17.246,-8l-87.217,207.695c0,0 -0.216,11.376 6.958,13.359l97.505,-213.054Z" style="fill:#0c2b34;fill-rule:nonzero;"/><path d="M1080.65,1680.45c1.054,0.441 3.908,-4.542 9.6,-8.134c5.592,-3.733 11.304,-4.312 11.329,-5.454c0.237,-1.054 -6.692,-2.35 -13.5,2.117c-6.854,4.4 -8.487,11.262 -7.429,11.471Z" style="fill:#0c2b34;fill-rule:nonzero;"/><path d="M1079.66,1707.02c0.9,0.7 4.734,-2.992 10.755,-4.513c5.97,-1.7 11.137,-0.412 11.566,-1.466c0.609,-0.904 -5.154,-4.413 -12.604,-2.379c-7.458,1.962 -10.696,7.883 -9.717,8.358Z" style="fill:#0c2b34;fill-rule:nonzero;"/><path d="M1100.6,1731.95c0.654,-0.842 -3.883,-4.667 -10.8,-4.608c-6.925,0.016 -11.417,3.896 -10.754,4.729c0.587,0.979 5.091,-0.775 10.775,-0.746c5.679,-0.096 10.204,1.613 10.779,0.625Z" style="fill:#0c2b34;fill-rule:nonzero;"/><path d="M1056.4,1667.08c1.15,-0.004 1.896,-5.429 4.987,-11.129c2.975,-5.758 7.042,-9.433 6.4,-10.383c-0.479,-0.946 -6.371,1.758 -9.921,8.52c-3.595,6.73 -2.516,13.13 -1.466,12.992Z" style="fill:#0c2b34;fill-rule:nonzero;"/><path d="M1033.44,1650.44c0.425,0.209 2.951,-3.608 4.83,-10.695c0.933,-3.529 1.625,-7.871 1.679,-12.734c0.025,-2.429 -0.104,-4.987 -0.446,-7.616c-0.179,-1.271 -0.283,-2.725 -1.037,-4.371c-0.555,-1.646 -3.013,-3.563 -5.313,-3.004c-2.138,0.337 -3.725,1.941 -4.467,3.466c-0.77,1.55 -1.033,2.967 -1.275,4.254c-0.512,2.638 -0.745,5.221 -0.762,7.675c-0.013,4.921 0.817,9.296 1.954,12.796c2.317,7.038 5.429,10.505 5.792,10.238c0.562,-0.313 -1.596,-4.208 -3.071,-10.971c-0.733,-3.367 -1.208,-7.463 -1.009,-11.971c0.117,-2.25 0.401,-4.6 0.917,-6.987c0.438,-2.529 1.304,-4.455 2.571,-4.575c0.479,-0.034 0.642,0.008 1.088,0.779c0.387,0.766 0.562,1.954 0.749,3.208c0.367,2.45 0.567,4.834 0.642,7.113c0.142,4.562 -0.225,8.691 -0.771,12.125c-1.087,6.883 -2.641,11.033 -2.071,11.27Z" style="fill:#0c2b34;fill-rule:nonzero;"/><path d="M1035.55,1649.76c0.329,-0.292 -2.454,-4.063 -9.017,-7.53c-3.262,-1.708 -7.471,-3.212 -12.35,-3.891c-2.437,-0.321 -5.033,-0.434 -7.721,-0.246c-2.675,0.287 -6.191,0.516 -8.504,4.342c-1.041,2.07 -0.196,4.575 0.938,5.816c1.121,1.367 2.292,2.071 3.412,2.888c2.309,1.529 4.771,2.595 7.184,3.295c4.841,1.405 9.462,1.275 13.108,0.484c7.425,-1.633 10.654,-5.404 10.342,-5.654c-0.363,-0.588 -4.034,2.121 -10.796,2.875c-3.334,0.375 -7.421,0.191 -11.567,-1.213c-2.071,-0.692 -4.15,-1.679 -6.079,-3.012c-2.113,-1.371 -3.55,-3.059 -2.929,-3.796c0.466,-1.071 2.996,-2.088 5.2,-2.138c2.412,-0.221 4.766,-0.196 6.996,0.004c4.462,0.43 8.412,1.534 11.591,2.809c6.388,2.567 9.775,5.462 10.192,4.967Z" style="fill:#0c2b34;fill-rule:nonzero;"/><path d="M1095.47,1390.06c-0,0 147.137,-54.954 201.295,-47.841c30.284,3.975 77.63,27.079 81.242,65.891c3.609,38.817 -5.862,90.738 -58.217,116.017c-52.354,25.271 -261.316,119.042 -310.962,133.488c-49.646,14.441 -173.429,48.262 -173.429,48.262l-47.029,-134.016c-0,-0 256.55,-88.825 270.091,-98.755c13.534,-9.929 47.842,-23.47 47.842,-23.47l-10.833,-59.576Z" style="fill:#0c2b34;fill-rule:nonzero;"/><path d="M583.983,1408.28c0.009,0.03 0.354,-0.066 1.021,-0.262c0.746,-0.229 1.721,-0.521 2.954,-0.896c2.596,-0.783 6.438,-1.908 11.446,-3.096c5.009,-1.179 11.184,-2.508 18.442,-3.212c7.262,-0.721 15.608,-0.759 24.758,0.033c9.142,0.8 19.129,2.454 29.446,5.613c5.15,1.579 10.4,3.504 15.529,6.058c5.196,2.533 10.538,5.141 16.017,7.816c22.012,10.521 46.591,21.292 72.779,31.634c52.429,21.008 102.758,30.975 138.637,39.129c18.005,3.983 32.559,7.263 42.588,9.65c4.942,1.167 8.817,2.083 11.554,2.733c1.259,0.284 2.254,0.509 3.013,0.68c0.679,0.145 1.033,0.208 1.037,0.183c0.008,-0.029 -0.329,-0.142 -0.996,-0.338c-0.75,-0.212 -1.733,-0.487 -2.975,-0.833c-2.625,-0.704 -6.479,-1.779 -11.487,-3.029c-9.988,-2.567 -24.513,-6.017 -42.484,-10.142c-35.837,-8.433 -86.033,-18.562 -138.304,-39.508c-26.154,-10.334 -50.716,-21.046 -72.733,-31.479c-5.483,-2.65 -10.829,-5.238 -16.029,-7.746c-5.225,-2.571 -10.55,-4.496 -15.767,-6.071c-10.442,-3.133 -20.517,-4.733 -29.729,-5.471c-9.225,-0.716 -17.629,-0.604 -24.942,0.204c-7.32,0.8 -13.5,2.221 -18.504,3.492c-5,1.292 -8.825,2.513 -11.396,3.396c-1.212,0.433 -2.175,0.779 -2.908,1.046c-0.65,0.25 -0.975,0.391 -0.967,0.416Z" style="fill:#335863;fill-rule:nonzero;"/><path d="M591.721,1388.89c0.05,0.254 4.479,-0.546 11.683,-1.326c7.2,-0.779 17.213,-1.37 28.242,-0.816c11.037,0.583 20.933,2.196 28.017,3.712c7.087,1.509 11.408,2.763 11.487,2.509c0.029,-0.1 -1.017,-0.521 -2.946,-1.184c-1.921,-0.683 -4.754,-1.52 -8.292,-2.421c-7.062,-1.808 -17.037,-3.616 -28.183,-4.199c-11.146,-0.559 -21.25,0.212 -28.462,1.291c-3.613,0.529 -6.513,1.075 -8.496,1.554c-1.988,0.463 -3.071,0.771 -3.05,0.88Z" style="fill:#335863;fill-rule:nonzero;"/><path d="M1157.36,1428.98c0.171,0.225 4.25,-2.937 11.301,-7.304c7.033,-4.375 17.204,-9.742 29.12,-13.967c11.934,-4.187 23.221,-6.395 31.442,-7.404c8.229,-1.025 13.387,-1.121 13.379,-1.404c0,-0.108 -1.287,-0.171 -3.625,-0.192c-2.337,-0.041 -5.716,0.104 -9.879,0.48c-8.317,0.733 -19.779,2.783 -31.846,7.024c-12.054,4.271 -22.262,9.867 -29.2,14.517c-3.471,2.321 -6.2,4.325 -7.987,5.829c-1.809,1.479 -2.775,2.334 -2.705,2.421Z" style="fill:#335863;fill-rule:nonzero;"/><path d="M1083.52,1628.86c-0,0 -0.396,0.13 -1.142,0.438c-0.792,0.333 -1.9,0.796 -3.342,1.4c-2.97,1.196 -7.245,3.229 -13,5.437c-11.458,4.546 -28.395,10.784 -50.116,17.921c-43.463,14.208 -105.942,32.3 -180.7,51.129l0.846,0.45c-13.934,-38.679 -29.309,-81.358 -45.484,-126.258l-0.441,0.996c18.041,-7.404 37.033,-15.209 56.329,-23.125c124.171,-51.109 235.762,-97.034 311.7,-128.284l0.108,-0.045l0.075,-0.08c12.688,-13.433 24.363,-25.266 35.304,-34.82c10.942,-9.542 21.009,-16.913 29.596,-22.296c8.542,-5.471 15.592,-8.917 20.304,-11.329c2.371,-1.105 4.184,-1.95 5.455,-2.542c1.22,-0.579 1.833,-0.912 1.833,-0.912c-0,-0 -0.65,0.237 -1.896,0.77c-1.283,0.563 -3.121,1.367 -5.521,2.417c-4.758,2.325 -11.871,5.696 -20.483,11.104c-8.659,5.321 -18.804,12.65 -29.834,22.163c-11.029,9.516 -22.787,21.325 -35.524,34.712l0.183,-0.125c-75.992,31.133 -187.65,76.888 -311.904,127.8c-19.292,7.925 -38.284,15.725 -56.325,23.133l-0.696,0.292l0.254,0.709c16.225,44.879 31.646,87.541 45.621,126.212l0.221,0.608l0.625,-0.158c74.766,-18.967 137.208,-37.254 180.625,-51.704c21.691,-7.263 38.6,-13.629 50.016,-18.317c5.73,-2.275 9.992,-4.383 12.925,-5.646c1.421,-0.65 2.513,-1.15 3.292,-1.508c0.738,-0.342 1.096,-0.542 1.096,-0.542Z" style="fill:#335863;fill-rule:nonzero;"/><path d="M719.854,921.137c0,0 -42.366,24.409 -50.95,53.08c-5.216,17.408 -44.737,240.137 -50.987,284.058c-6.313,44.346 6.937,76.454 25.666,91.021c18.73,14.567 75.509,33.979 75.509,33.979l79.871,25.871l22.891,-58.267l-76.033,-109.225l7.358,-73.575l-33.325,-246.942Z" style="fill:#ade0f0;fill-rule:nonzero;"/><path d="M803.125,882.654l26.417,-19.483c-0,-0 34.42,35.229 73.958,31.067c39.542,-4.163 62.958,-34.426 62.958,-34.426l117.905,24.009c7.916,1.587 22.345,6.583 36.141,26.296c15.396,21.996 88.354,119.521 88.354,119.521l51.104,-0c14.08,-0 27.017,7.783 33.567,20.254c8.725,16.608 19.196,38.816 18.175,48.02c-1.729,15.555 1.271,58.271 -19.596,71.605c-6.616,4.233 -30.291,16.92 -48.662,16.054c-27.109,-1.275 -58.592,-15.392 -76.734,-28.075c-15.358,-10.742 -51.087,-47.875 -64.829,-62.363l0.021,0.225l-8.825,309.33l-309.158,-8.805l-64.067,-474.746c0,0 80.15,-38.483 83.271,-38.483Z" style="fill:#aae6f4;fill-rule:nonzero;"/><path d="M1102.98,965.538c-0.441,-0.005 -1.246,38.337 -1.804,85.629c-0.558,47.308 -0.658,85.646 -0.217,85.654c0.438,0.004 1.246,-38.329 1.805,-85.638c0.558,-47.291 0.654,-85.641 0.216,-85.645Z" style="fill:#0c2b34;fill-rule:nonzero;"/><path d="M682.421,1215.6c-0.017,0.158 2.621,0.421 7.292,1.308c4.679,0.854 11.354,2.704 19.145,6.092c7.804,3.362 16.55,8.583 25.488,15.4c8.933,6.833 17.983,15.325 26.85,24.833c8.85,9.542 16.916,18.988 24.504,27.375c7.579,8.396 14.683,15.721 21.063,21.45c6.358,5.738 11.858,9.988 15.825,12.667c1.945,1.4 3.57,2.312 4.629,2.996c1.075,0.654 1.654,0.975 1.679,0.933c0.033,-0.046 -0.488,-0.463 -1.504,-1.2c-1,-0.767 -2.567,-1.758 -4.442,-3.233c-3.846,-2.817 -9.2,-7.175 -15.429,-12.988c-6.242,-5.804 -13.234,-13.175 -20.729,-21.604c-7.517,-8.417 -15.55,-17.9 -24.434,-27.479c-8.912,-9.554 -18.062,-18.079 -27.125,-24.917c-9.075,-6.812 -17.979,-11.996 -25.933,-15.262c-7.933,-3.3 -14.729,-4.996 -19.475,-5.671c-2.354,-0.467 -4.233,-0.479 -5.483,-0.629c-1.259,-0.1 -1.917,-0.129 -1.921,-0.071Z" style="fill:#0c2b34;fill-rule:nonzero;"/><path d="M675.425,1194.64c-0.042,0.287 4.679,0.933 12.046,2.979c7.358,2.025 17.312,5.737 27.337,11.687c10.005,5.984 18.013,12.967 23.296,18.475c5.304,5.504 8.121,9.346 8.354,9.175c0.088,-0.066 -0.554,-1.07 -1.791,-2.837c-1.213,-1.779 -3.167,-4.225 -5.742,-7.104c-5.129,-5.767 -13.15,-13 -23.308,-19.075c-10.171,-6.038 -20.354,-9.642 -27.863,-11.409c-3.758,-0.891 -6.837,-1.446 -8.983,-1.666c-2.146,-0.246 -3.334,-0.334 -3.346,-0.225Z" style="fill:#0c2b34;fill-rule:nonzero;"/><path d="M1246.62,1140.9c-15.442,-0 -33.067,-20.883 -46.68,-34.375c-7.733,-7.667 -15.77,-15.846 -18.616,-26.35c-2.354,-8.683 -0.817,-18.05 2.566,-26.383c3.388,-8.334 5.788,-13.729 10.884,-21.138c-1.371,12.704 -4.496,32.171 -0.225,48.142c3.566,13.317 12.008,23.916 20.958,33.966c9.475,10.634 20.675,21.8 35.317,25.584c-1.379,0.379 -2.784,0.554 -4.204,0.554Z" style="fill:#2e7d93;fill-rule:nonzero;"/><path d="M1180.85,1126.88c0.309,-0.096 -1.591,-5.396 -3.121,-14.267c-0.8,-4.429 -1.325,-9.775 -1.504,-15.708c-0.071,-5.938 0.263,-12.475 1.296,-19.254c1.108,-6.771 2.804,-13.096 4.704,-18.725c1.996,-5.592 4.142,-10.513 6.267,-14.479c4.196,-7.967 7.629,-12.425 7.371,-12.613c-0.088,-0.062 -0.979,1.021 -2.517,3.042c-0.788,1 -1.708,2.254 -2.654,3.792c-0.959,1.525 -2.142,3.224 -3.188,5.245c-2.27,3.942 -4.554,8.88 -6.658,14.525c-2.004,5.684 -3.767,12.096 -4.892,18.967c-1.05,6.879 -1.345,13.517 -1.191,19.537c0.262,6.021 0.912,11.421 1.862,15.875c0.367,2.246 0.971,4.221 1.413,5.971c0.429,1.759 0.916,3.23 1.358,4.425c0.837,2.396 1.35,3.704 1.454,3.667Z" style="fill:#0c2b34;fill-rule:nonzero;"/><path d="M953.579,871.763c-0.208,0.416 3.413,2.52 7.204,5.925c3.821,3.37 6.329,6.725 6.721,6.466c0.359,-0.2 -1.658,-4.108 -5.666,-7.654c-3.984,-3.567 -8.1,-5.117 -8.259,-4.737Z" style="fill:#0c2b34;fill-rule:nonzero;"/><path d="M921.408,890.454c-0.333,0.334 2.779,3.679 5.279,8.604c2.559,4.909 3.459,9.384 3.926,9.309c0.408,-0.017 0.183,-4.842 -2.513,-10.034c-2.65,-5.208 -6.442,-8.196 -6.692,-7.879Z" style="fill:#0c2b34;fill-rule:nonzero;"/><path d="M866.325,909.846c0.446,0.1 1.7,-4.133 3.546,-9.221c1.821,-5.092 3.554,-9.154 3.15,-9.363c-0.371,-0.2 -2.779,3.613 -4.646,8.825c-1.883,5.205 -2.462,9.68 -2.05,9.759Z" style="fill:#0c2b34;fill-rule:nonzero;"/><path d="M830.883,893.096c0.471,0.104 1.68,-5.292 5.171,-10.988c3.425,-5.737 7.646,-9.308 7.333,-9.675c-0.199,-0.346 -5.079,2.825 -8.691,8.855c-3.663,5.995 -4.208,11.791 -3.813,11.808Z" style="fill:#0c2b34;fill-rule:nonzero;"/><path d="M729.092,993.267c-0.438,0.054 4.8,42.308 11.687,94.358c6.892,52.067 12.829,94.217 13.263,94.162c0.437,-0.058 -4.796,-42.304 -11.688,-94.366c-6.891,-52.054 -12.829,-94.213 -13.262,-94.154Z" style="fill:#0c2b34;fill-rule:nonzero;"/><path d="M1192.38,1061.68c-0.108,0.004 -0.071,1.554 0.096,4.363c0.025,1.416 0.275,3.116 0.633,5.091c0.167,1.005 0.346,2.055 0.534,3.163c0.233,1.112 0.575,2.262 0.883,3.483c1.142,4.921 3.35,10.529 6.092,16.6c2.983,5.958 6.658,12.338 11.358,18.45c4.758,6.054 9.896,11.354 15.1,15.55c5.308,4.042 10.425,7.321 15.162,9.146c1.167,0.479 2.263,0.987 3.334,1.375c1.083,0.3 2.117,0.583 3.1,0.858c0.95,0.259 1.85,0.504 2.696,0.738c0.837,0.183 1.629,0.221 2.329,0.321c2.804,0.329 4.346,0.454 4.354,0.345c0.079,-0.429 -6.3,-0.545 -15.363,-4.666c-4.579,-1.909 -9.533,-5.229 -14.691,-9.254c-5.063,-4.184 -10.075,-9.421 -14.763,-15.384c-4.629,-6.016 -8.283,-12.279 -11.3,-18.112c-2.775,-5.958 -5.062,-11.45 -6.325,-16.263c-2.783,-9.575 -2.866,-15.837 -3.229,-15.804Z" style="fill:#0c2b34;fill-rule:nonzero;"/><path d="M737.788,1396.51c-0,0 -5.546,-2.32 -14.33,-5.858c-0.433,-2.088 -0.779,-4.2 -1.07,-6.304l36.662,11.871l-21.262,0.291Zm29.479,-124.05l-7.45,-10.7c0.458,0.488 0.92,0.98 1.379,1.471c1.921,2.071 3.808,4.142 5.658,6.192l0.413,3.037Zm-0.788,-5.812c-1.354,-1.496 -2.725,-2.996 -4.121,-4.5c-2.646,-2.842 -5.316,-5.588 -8,-8.229l-8.537,-12.263l0.479,-4.775c0.062,0.054 0.113,0.084 0.138,0.084c0.008,-0 0.016,-0 0.02,-0.005c0.029,-0.02 -0.016,-0.137 -0.133,-0.345l5.663,-56.625c0.541,-0.063 1.083,-0.121 1.629,-0.176c0.225,1.296 0.371,1.975 0.425,1.975c0.058,-0.008 0.021,-0.7 -0.1,-2.008c0.266,-0.025 0.537,-0.05 0.804,-0.075l11.733,86.942Z" style="fill:#a0a3a5;fill-rule:nonzero;"/><path d="M739.038,1415.27c-9.217,-4.463 -13.43,-14.196 -15.58,-24.621c8.784,3.538 14.33,5.858 14.33,5.858l21.262,-0.291l39.913,12.929l4.987,-12.696l99.983,2.85l-164.895,15.971Z" style="fill:#011721;fill-rule:nonzero;"/><path d="M798.963,1409.15l-39.913,-12.929l-36.662,-11.871c-0.321,-2.334 -0.567,-4.658 -0.78,-6.917c-3.916,-42.491 -7.833,-84.987 -11.754,-127.475c-0.804,-8.716 -1.429,-17.975 -0.704,-26.829c7.729,3.362 16.367,8.537 25.196,15.271c8.471,6.479 17.046,14.45 25.471,23.362l7.45,10.7l16.654,123.425l20.029,0.567l-4.987,12.696Zm-44.605,-155.229c-6.341,-6.242 -12.758,-11.884 -19.125,-16.688c-9.075,-6.812 -17.979,-11.996 -25.933,-15.262c-0.017,-0.005 -0.029,-0.013 -0.046,-0.017c0.471,-4.912 1.375,-9.683 2.917,-14.154c0.875,0.487 1.758,0.991 2.637,1.512c10.005,5.984 18.013,12.967 23.296,18.475c4.746,4.925 7.5,8.517 8.196,9.096l-0.479,4.775l8.537,12.263Zm-8.033,-17.304c-0.246,-0.438 -0.812,-1.288 -1.658,-2.492c-1.213,-1.779 -3.167,-4.225 -5.742,-7.104c-5.129,-5.767 -13.15,-13 -23.308,-19.075c-0.967,-0.575 -1.934,-1.125 -2.896,-1.659c1.896,-4.95 4.629,-9.491 8.483,-13.4c8.075,-8.183 19.138,-11.541 30.784,-12.895l-5.663,56.625Z" style="fill:#2d7c93;fill-rule:nonzero;"/><path d="M903.933,1399.3l-99.983,-2.85l-20.029,-0.567l-16.654,-123.425l-0.413,-3.037c6.675,7.404 12.904,14.617 18.846,21.183c7.579,8.396 14.683,15.721 21.063,21.45c6.358,5.738 11.858,9.988 15.825,12.667c1.945,1.4 3.57,2.312 4.629,2.996c1.008,0.616 1.579,0.937 1.67,0.937c0.005,0 0.009,-0.004 0.009,-0.004c0.033,-0.046 -0.488,-0.463 -1.504,-1.2c-1,-0.767 -2.567,-1.758 -4.442,-3.233c-3.846,-2.817 -9.2,-7.175 -15.429,-12.988c-6.242,-5.804 -13.234,-13.175 -20.729,-21.604c-6.338,-7.096 -13.042,-14.95 -20.313,-22.979l-11.733,-86.942c5.537,-0.496 11.167,-0.596 16.629,-0.596l1.467,0c113.129,0.33 213.037,3.629 326.166,3.959l-5.762,197.895l-189.313,18.338Z" style="fill:#2e7d93;fill-rule:nonzero;"/><path d="M828.887,1328.65c-0.091,0 -0.662,-0.321 -1.67,-0.937c-1.059,-0.684 -2.684,-1.596 -4.629,-2.996c-3.967,-2.679 -9.467,-6.929 -15.825,-12.667c-6.38,-5.729 -13.484,-13.054 -21.063,-21.45c-5.942,-6.566 -12.171,-13.779 -18.846,-21.183c-1.85,-2.05 -3.737,-4.121 -5.658,-6.192c-0.459,-0.491 -0.921,-0.983 -1.379,-1.471c-8.425,-8.912 -17,-16.883 -25.471,-23.362c-8.829,-6.734 -17.467,-11.909 -25.196,-15.271c0.033,-0.392 0.067,-0.788 0.104,-1.175c0.017,0.004 0.029,0.012 0.046,0.017c7.954,3.266 16.858,8.45 25.933,15.262c6.367,4.804 12.784,10.446 19.125,16.688c2.684,2.641 5.354,5.387 8,8.229c1.396,1.504 2.767,3.004 4.121,4.5c7.271,8.029 13.975,15.883 20.313,22.979c7.495,8.429 14.487,15.8 20.729,21.604c6.229,5.813 11.583,10.171 15.429,12.988c1.875,1.475 3.442,2.466 4.442,3.233c1.016,0.737 1.537,1.154 1.504,1.2c-0,-0 -0.004,0.004 -0.009,0.004Z" style="fill:#011721;fill-rule:nonzero;"/><path d="M746.438,1236.96c-0.025,-0 -0.076,-0.03 -0.138,-0.084c-0.696,-0.579 -3.45,-4.171 -8.196,-9.096c-5.283,-5.508 -13.291,-12.491 -23.296,-18.475c-0.879,-0.521 -1.762,-1.025 -2.637,-1.512c0.175,-0.509 0.358,-1.013 0.55,-1.513c0.962,0.534 1.929,1.084 2.896,1.659c10.158,6.075 18.179,13.308 23.308,19.075c2.575,2.879 4.529,5.325 5.742,7.104c0.846,1.204 1.412,2.054 1.658,2.492c0.117,0.208 0.162,0.325 0.133,0.345c-0.004,0.005 -0.012,0.005 -0.02,0.005Z" style="fill:#011721;fill-rule:nonzero;"/><path d="M754.042,1181.79c-0.054,0 -0.2,-0.679 -0.425,-1.975c0.108,-0.012 0.216,-0.02 0.325,-0.033c0.121,1.308 0.158,2 0.1,2.008Z" style="fill:#011721;fill-rule:nonzero;"/><path d="M1147.77,1213.73l-12.046,229.525c-0.467,8.846 -7.858,15.783 -16.825,15.779l-365.617,0.634c-8.983,-0.005 -16.383,-6.976 -16.821,-15.842l-13.954,-225.625c-0.458,-9.371 6.209,-21.834 15.696,-22.021l392.404,0.038c9.779,-0.192 17.667,7.858 17.163,17.512Z" style="fill:#c8c8c8;fill-rule:nonzero;"/><path d="M1147.77,1213.73c-0,0 0.025,-0.292 0.041,-0.858c0.042,-0.579 -0.008,-1.43 -0.137,-2.559c-0.325,-2.2 -1.275,-5.662 -4.333,-8.941c-1.517,-1.613 -3.546,-3.167 -6.117,-4.163c-2.542,-1.079 -5.638,-1.316 -8.834,-1.229c-6.441,-0.021 -13.87,-0.046 -22.229,-0.075c-33.487,-0.062 -81.875,-0.154 -141.662,-0.267c-59.817,-0.054 -131.029,-0.116 -210.096,-0.187c-4.946,-0.004 -9.917,-0.009 -14.921,-0.009c-2.496,-0.112 -5.35,0.496 -7.554,1.93c-2.262,1.383 -4.104,3.329 -5.579,5.475c-2.908,4.329 -4.629,9.479 -4.592,14.804c0.3,5.116 0.609,10.262 0.913,15.433c1.27,20.659 2.571,41.75 3.891,63.221c2.65,42.946 5.392,87.408 8.205,132.942l0.524,8.529c0.242,2.866 0.2,5.612 0.705,8.596c1.083,5.887 5.491,10.895 11.025,12.941c2.733,1.092 5.85,1.238 8.583,1.146l8.408,-0.017c5.6,-0.008 11.175,-0.02 16.729,-0.029c22.225,-0.046 44.125,-0.087 65.642,-0.125c43.033,-0.096 84.546,-0.179 124.088,-0.266c39.541,-0.092 77.116,-0.184 112.287,-0.267c8.792,-0.025 17.429,-0.046 25.917,-0.071c2.121,-0.004 4.229,-0.008 6.333,-0.016c2.096,-0.038 4.179,0.091 6.35,-0.2c4.279,-0.58 8.25,-2.813 10.959,-6.059c2.762,-3.204 4.12,-7.516 4.079,-11.55c0.208,-3.992 0.412,-7.946 0.612,-11.85c0.4,-7.817 0.792,-15.462 1.175,-22.925c3.029,-59.712 5.479,-108.037 7.175,-141.471c0.809,-16.679 1.438,-29.637 1.867,-38.47c0.196,-4.371 0.346,-7.713 0.446,-10.005c0.091,-2.254 0.1,-3.408 0.1,-3.408c-0,0 -0.113,1.15 -0.263,3.4c-0.137,2.287 -0.337,5.629 -0.6,10c-0.5,8.825 -1.229,21.775 -2.171,38.45c-1.812,33.433 -4.433,81.742 -7.675,141.442c-0.4,7.466 -0.808,15.108 -1.229,22.925c-0.208,3.908 -0.421,7.858 -0.633,11.85c0.016,3.954 -1.246,7.804 -3.817,10.825c-2.529,3.012 -6.221,5.075 -10.2,5.608c-1.958,0.267 -4.079,0.15 -6.175,0.175c-2.104,0.004 -4.217,0.004 -6.333,0.008c-8.488,0.009 -17.125,0.013 -25.917,0.021c-35.171,0.042 -72.746,0.083 -112.287,0.129c-39.546,0.05 -81.055,0.109 -124.088,0.167c-21.521,0.033 -43.417,0.067 -65.642,0.104c-5.558,0.009 -11.133,0.017 -16.729,0.025l-8.408,0.017c-2.863,0.083 -5.471,-0.054 -8.025,-1.046c-5.038,-1.867 -9.046,-6.425 -10.025,-11.762c-0.454,-2.605 -0.446,-5.575 -0.675,-8.376l-0.529,-8.529c-2.821,-45.541 -5.575,-90.004 -8.234,-132.941c-1.337,-21.475 -2.65,-42.563 -3.933,-63.221c-0.308,-5.159 -0.617,-10.283 -0.921,-15.388c-0.046,-4.916 1.588,-9.875 4.317,-13.921c2.708,-4.058 6.996,-7.145 11.921,-6.77c5,-0.004 9.975,-0.004 14.917,-0.009c79.066,-0.058 150.275,-0.108 210.095,-0.154c59.788,-0.1 108.175,-0.179 141.655,-0.237c8.358,-0.025 15.787,-0.05 22.229,-0.071c3.225,-0.108 6.166,0.1 8.683,1.129c2.521,0.946 4.521,2.45 6.029,4.012c3.042,3.18 4.033,6.575 4.404,8.746c0.342,2.221 0.171,3.392 0.259,3.392Z" style="fill:#0c2b34;fill-rule:nonzero;"/><path d="M910.892,1325.67c-0,11.891 9.641,21.537 21.537,21.537c11.892,0 21.534,-9.646 21.534,-21.537c-0,-11.896 -9.642,-21.538 -21.534,-21.538c-11.896,0 -21.537,9.642 -21.537,21.538Z" style="fill:#fff;fill-rule:nonzero;"/><path d="M910.892,1325.67c0.175,0.012 0.095,-1.921 0.975,-5.184c0.866,-3.204 3.045,-7.887 7.87,-11.487c2.392,-1.763 5.388,-3.246 8.838,-3.838c3.425,-0.566 7.279,-0.437 10.938,0.967c3.662,1.329 7.154,3.821 9.629,7.275c2.55,3.4 3.983,7.763 4.029,12.263c-0.046,4.5 -1.475,8.866 -4.025,12.271c-2.479,3.445 -5.971,5.945 -9.633,7.27c-3.659,1.409 -7.517,1.538 -10.942,0.971c-3.446,-0.591 -6.442,-2.079 -8.834,-3.837c-4.825,-3.6 -7.004,-8.288 -7.87,-11.488c-0.88,-3.262 -0.8,-5.196 -0.975,-5.183c-0.055,-0 -0.084,0.471 -0.092,1.383c-0.021,0.908 0.088,2.259 0.467,3.95c0.708,3.338 2.796,8.313 7.791,12.229c2.471,1.913 5.617,3.55 9.271,4.238c3.629,0.662 7.746,0.579 11.683,-0.888c3.938,-1.383 7.705,-4.029 10.388,-7.725c2.754,-3.641 4.317,-8.35 4.358,-13.191c-0.041,-4.838 -1.608,-9.546 -4.362,-13.188c-2.683,-3.691 -6.45,-6.342 -10.384,-7.725c-3.937,-1.462 -8.049,-1.546 -11.679,-0.883c-3.658,0.683 -6.804,2.321 -9.275,4.233c-4.991,3.921 -7.083,8.896 -7.791,12.233c-0.379,1.692 -0.488,3.042 -0.467,3.951c0.008,0.912 0.037,1.383 0.092,1.383Z" style="fill:#0c2b34;fill-rule:nonzero;"/><path d="M1135.45,1239.13c-0.437,-0.012 -2.237,38.554 -4.025,86.138c-1.783,47.604 -2.875,86.195 -2.437,86.212c0.437,0.017 2.241,-38.546 4.025,-86.15c1.783,-47.583 2.875,-86.183 2.437,-86.2Z" style="fill:#0c2b34;fill-rule:nonzero;"/><path d="M1245.34,939.658c2.141,-1.808 -7.225,-37.858 -7.225,-37.858c-0,0 24.804,-40.463 25.454,-53.521c0.654,-13.054 -9.788,-39.812 -9.788,-39.812l-71.145,-18.279c-0,-0 -22.859,42.424 -27.425,57.437c-4.563,15.017 7.841,65.929 7.841,65.929l12.05,26.104c0,0 36.346,28.725 70.238,0Z" style="fill:#f9b299;fill-rule:nonzero;"/><path d="M1263.44,856.083c-0,0 3.083,-5.345 7.491,-15.795c4.504,-10.684 10.038,-21.159 0,-27.134c-5.904,-3.516 -10.721,-1.691 -10.721,-1.691c0,-0 1.542,-8.992 -3.833,-12.367c-5.371,-3.379 -10.546,-0.917 -10.546,-0.917c0,0 1.692,-12.683 -6.041,-18.062c-9.7,-6.75 -19.705,-0.563 -19.705,-0.563c0,0 6.125,-55.521 6.654,-58.462c1.951,-10.796 -2.041,-20.346 -12.783,-17.684c-3.937,0.975 -6.125,5.125 -10.742,23.204c-4.612,18.08 -12.033,48.938 -12.033,48.938c0,0 -12.491,21.713 -18.396,33.488c-5.9,11.774 -17.57,38.587 -18.537,45.691c-2.513,18.367 8.242,42.688 8.242,42.688l75.629,4.383c-0,0 22.437,-40.446 25.321,-45.717Z" style="fill:#f9b299;fill-rule:nonzero;"/><path d="M1258.72,813.854c-0.184,-0.117 -2.409,3.017 -5.85,8.171c-1.788,2.721 -3.8,5.779 -5.984,9.1c-1.108,1.717 -2.329,3.546 -3.25,5.688c-0.92,2.1 -1.491,4.679 -0.891,7.212c0.504,2.483 2.283,4.9 4.775,5.6c2.471,0.771 4.875,0.033 6.775,-0.838c1.941,-0.891 3.579,-2.062 5.054,-3.12c1.487,-1.071 2.846,-2.096 4.075,-3.054c2.45,-1.917 4.358,-3.559 5.642,-4.738c1.279,-1.175 1.937,-1.883 1.866,-1.967c-0.154,-0.179 -3.146,2.221 -8.179,5.805c-2.55,1.7 -5.5,4.079 -9.058,5.741c-1.775,0.779 -3.842,1.309 -5.7,0.688c-1.888,-0.55 -3.25,-2.355 -3.705,-4.467c-0.499,-2.121 -0.049,-4.296 0.776,-6.258c0.829,-1.971 1.979,-3.767 3.054,-5.505c2.079,-3.391 3.995,-6.512 5.696,-9.287c3.204,-5.308 5.091,-8.65 4.904,-8.771Z" style="fill:#f79570;fill-rule:nonzero;"/><path d="M1196.69,820.45c0.408,0.017 0.787,-5.417 -0.796,-11.883c-1.542,-6.479 -4.359,-11.142 -4.717,-10.942c-0.417,0.204 1.683,5.042 3.175,11.313c1.534,6.258 1.871,11.52 2.338,11.512Z" style="fill:#f79570;fill-rule:nonzero;"/><path d="M1166.71,836.679c6.759,-6.883 15.871,-11.158 25.301,-13.204c9.425,-2.046 19.2,-1.979 28.808,-1.108c7.691,0.7 16.479,2.687 19.983,9.575c3.604,7.087 -0.733,16.216 -7.558,20.296c-6.829,4.074 -15.267,4.237 -23.183,3.516c-7.917,-0.717 -15.905,-2.196 -23.763,-0.971" style="fill:#f9b299;fill-rule:nonzero;"/><path d="M1186.3,854.783c0.021,0.134 2.133,-0.2 5.971,-0.158c3.841,0.004 9.346,0.704 16.208,1.542c3.434,0.379 7.242,0.696 11.354,0.479c4.084,-0.233 8.559,-0.996 12.738,-3.2c4.204,-2.167 7.8,-6.083 9.466,-11.009c0.859,-2.445 1.084,-5.195 0.538,-7.87c-0.629,-2.655 -2.079,-5.167 -4.171,-6.996c-4.221,-3.729 -9.629,-4.921 -14.542,-5.642c-4.987,-0.604 -9.77,-0.85 -14.366,-0.867c-9.179,-0.033 -17.475,1.326 -24.046,3.642c-6.587,2.284 -11.421,5.35 -14.429,7.783c-1.517,1.213 -2.604,2.263 -3.313,2.996c-0.691,0.75 -1.037,1.159 -0.996,1.196c0.105,0.108 1.58,-1.45 4.684,-3.7c3.083,-2.254 7.904,-5.104 14.412,-7.212c6.484,-2.134 14.625,-3.355 23.68,-3.242c4.516,0.054 9.308,0.337 14.162,0.946c4.779,0.708 9.929,1.929 13.687,5.279c1.876,1.633 3.134,3.846 3.696,6.158c0.475,2.346 0.304,4.805 -0.471,7.042c-1.504,4.508 -4.804,8.175 -8.674,10.204c-3.9,2.104 -8.171,2.896 -12.138,3.179c-3.988,0.267 -7.742,0.021 -11.158,-0.283c-6.838,-0.692 -12.446,-1.229 -16.329,-1.042c-1.938,0.067 -3.438,0.259 -4.442,0.413c-1.009,0.183 -1.529,0.308 -1.521,0.362Z" style="fill:#f79570;fill-rule:nonzero;"/><path d="M1258.17,814.721c-7.955,12.083 -14.98,25.367 -21.688,38.187c-1.95,3.73 -4.012,7.671 -7.596,9.88c-2.87,1.77 -9.987,-1.438 -13.175,-2.53l21.846,-49.716" style="fill:#f9b299;fill-rule:nonzero;"/><path d="M1237.55,810.542c-0.092,-0.042 -0.775,1.271 -1.937,3.704c-1.25,2.692 -2.875,6.183 -4.838,10.408c-4.05,8.863 -9.6,21.254 -15.792,35.288l-0.341,0.77l0.804,0.288c2.362,0.842 4.896,1.908 7.629,2.592c1.075,0.262 2.179,0.475 3.338,0.5c0.579,0.008 1.179,-0.013 1.791,-0.192c0.621,-0.129 1.234,-0.521 1.646,-0.808c1.842,-1.275 3.25,-2.975 4.4,-4.704c2.246,-3.53 3.833,-7.067 5.608,-10.35c3.434,-6.613 6.58,-12.534 9.309,-17.455c2.717,-4.929 5.017,-8.862 6.612,-11.579c1.596,-2.717 2.484,-4.217 2.384,-4.283c-0.084,-0.054 -1.146,1.333 -2.904,3.954c-1.763,2.621 -4.217,6.479 -7.071,11.35c-2.859,4.867 -6.117,10.746 -9.625,17.329c-1.8,3.25 -3.467,6.863 -5.604,10.167c-1.096,1.633 -2.392,3.158 -4.005,4.271c-1.375,1.12 -3.5,0.708 -5.5,0.258c-2.583,-0.646 -5.041,-1.671 -7.496,-2.537l0.463,1.058c6.15,-14.05 11.525,-26.517 15.317,-35.492c1.783,-4.304 3.258,-7.862 4.396,-10.604c1.004,-2.504 1.512,-3.896 1.416,-3.933Z" style="fill:#f79570;fill-rule:nonzero;"/><path d="M1243.45,795.771c-7.025,17.612 -14.046,35.225 -21.071,52.837c-1.487,3.738 -3.025,7.555 -5.663,10.596c-2.637,3.042 -6.629,5.217 -10.608,4.625c-5.491,-0.821 -9.079,-6.646 -9.358,-12.187c-0.279,-5.542 1.916,-10.871 3.946,-16.034c6.3,-16.062 11.358,-32.608 15.108,-49.45" style="fill:#f9b299;fill-rule:nonzero;"/><path d="M1215.8,786.158c-0.054,-0.008 -0.238,0.542 -0.529,1.609c-0.334,1.241 -0.746,2.783 -1.25,4.67c-1.092,4.055 -2.675,9.913 -4.904,17.076c-2.225,7.158 -5.096,15.612 -8.721,24.829c-1.763,4.596 -4.038,9.483 -4.413,15.116c-0.204,2.784 0.284,5.771 1.592,8.396c1.283,2.613 3.396,5.05 6.333,6.2c2.942,1.179 6.267,0.671 8.85,-0.716c2.634,-1.359 4.717,-3.517 6.221,-5.859c2.983,-4.758 4.438,-9.796 6.371,-14.358c3.6,-9.196 6.854,-17.508 9.617,-24.567c2.62,-6.858 4.77,-12.479 6.35,-16.612c0.666,-1.838 1.216,-3.342 1.654,-4.546c0.358,-1.046 0.525,-1.604 0.475,-1.625c-0.05,-0.021 -0.317,0.496 -0.775,1.504c-0.509,1.179 -1.15,2.646 -1.929,4.437c-1.696,4.088 -4.005,9.646 -6.821,16.425c-2.85,7.021 -6.213,15.292 -9.929,24.442c-1.959,4.546 -3.505,9.638 -6.313,14.046c-1.421,2.188 -3.3,4.1 -5.646,5.313c-2.312,1.224 -5.104,1.612 -7.55,0.637c-2.45,-0.954 -4.333,-3.067 -5.491,-5.421c-1.184,-2.383 -1.629,-5 -1.455,-7.604c0.313,-5.238 2.475,-10.042 4.221,-14.675c3.567,-9.292 6.342,-17.817 8.434,-25.042c2.096,-7.225 3.52,-13.145 4.429,-17.25c0.441,-2.054 0.771,-3.654 0.958,-4.746c0.196,-1.087 0.275,-1.666 0.221,-1.679Z" style="fill:#f79570;fill-rule:nonzero;"/><path d="M1291.9,1068.84c-1.904,-6.979 -50.154,-149.187 -50.154,-149.187l-79.504,-9.529l32.525,122.533c-0,0 -3.543,21.7 -1.752,39.577c0.354,3.528 0.915,6.906 1.752,9.94c5.079,18.408 45.708,68.567 66.662,56.5c20.946,-12.059 32.375,-62.85 30.471,-69.834Z" style="fill:#f9b299;fill-rule:nonzero;"/><path d="M1194.77,897.546c0.021,0.179 1.8,0.204 4.537,-0.6c2.734,-0.779 6.363,-2.559 9.6,-5.517c3.225,-2.966 5.313,-6.429 6.33,-9.083c1.029,-2.663 1.162,-4.433 0.983,-4.471c-0.459,-0.192 -2.133,6.767 -8.388,12.387c-6.137,5.742 -13.212,6.813 -13.062,7.284Z" style="fill:#f79570;fill-rule:nonzero;"/></g></svg>