<?xml version="1.0" encoding="UTF-8" standalone="no"?><!DOCTYPE svg PUBLIC "-//W3C//DTD SVG 1.1//EN" "http://www.w3.org/Graphics/SVG/1.1/DTD/svg11.dtd"><svg width="100%" height="100%" viewBox="0 0 13334 8338" version="1.1" xmlns="http://www.w3.org/2000/svg" xmlns:xlink="http://www.w3.org/1999/xlink" xml:space="preserve" xmlns:serif="http://www.serif.com/" style="fill-rule:evenodd;clip-rule:evenodd;stroke-linejoin:round;stroke-miterlimit:2;"><g><rect x="0" y="4.167" width="13333.3" height="8333.33" style="fill:#fff;"/><path d="M1531.32,7444.33c-0,0 -1406.14,-1509.75 -237.8,-3144.25c1036.63,-1450.28 2245.24,-1351.14 3131.98,-762.617c377.667,250.659 1466.54,30.892 2393.29,-1444.8c1263.88,-2012.43 5644.83,-791.884 4846.04,2304.29c-386.542,1498.33 1176.46,1552.79 380.041,3050.54l-10513.6,-3.167Z" style="fill:#ebf3fa;fill-rule:nonzero;"/><path d="M2667.47,5399.17l915.866,995.125l-995.12,915.875l-915.871,-995.125l995.125,-915.875Z" style="fill:#dfebfd;fill-rule:nonzero;"/><path d="M2667.47,5399.17l184.454,200.416l-995.121,915.875l-184.458,-200.416l995.125,-915.875Z" style="fill:#bed7fb;fill-rule:nonzero;"/><path d="M5573.71,1479.01l682.375,97.338l-452.833,-308.638l-23,98.942l-165.958,30.05l-40.584,82.308Z" style="fill:#9ec3f6;fill-rule:nonzero;"/><path d="M6256.08,1576.35l-567.833,-292.762l-556.542,-27.997l1124.38,320.759Z" style="fill:#cde0fb;fill-rule:nonzero;"/><path d="M5803.25,1267.71l452.833,308.638l-350.542,-482.363l-102.291,173.725Z" style="fill:#cde0fb;fill-rule:nonzero;"/><path d="M9389.42,2825.17l-171.625,123.17l-172.5,-121.837c38.208,-53.8 101.374,-89.375 172.5,-89.375c70.708,0 133.416,34.683 171.625,88.042Z" style="fill:#fff;fill-rule:nonzero;"/><path d="M9217.79,2436.99c-172.5,0 -325.042,85.817 -417.542,216.992l108.958,76.475c68.458,-96.933 181.417,-160.071 308.584,-160.071c126.292,0 238.333,62.25 306.833,157.85l108.5,-77.812c-92.959,-129.396 -244.583,-213.434 -415.333,-213.434Z" style="fill:#fff;fill-rule:nonzero;"/><path d="M9217.79,1866.5c-365.042,-0 -687.875,181.417 -883.5,458.879l108.916,76.48c171.626,-242.78 454.875,-401.963 774.584,-401.963c317.042,-0 598.499,156.516 770.583,396.183l108.041,-77.816c-196.082,-273.459 -516.666,-451.763 -878.624,-451.763Z" style="fill:#fff;fill-rule:nonzero;"/><path d="M9217.79,2178.65c-259.667,-0 -490.005,128.5 -630.042,325.483l108.916,76.479c116.043,-162.295 306.376,-268.566 521.126,-268.566c212.999,-0 401.958,104.491 518.458,264.566l108.041,-77.37c-140.5,-194.313 -369.041,-320.592 -626.499,-320.592Z" style="fill:#fff;fill-rule:nonzero;"/><path d="M4760.46,4516.62c-105.791,106.125 -222.333,198.333 -348.208,276c-305.004,-222.917 -630.908,-413.75 -970.446,-568.208c46.679,-85.546 92.683,-175.888 137.6,-270.196c310.788,41.187 609.554,65.904 882.346,72.296c71.208,2.058 140.333,2.058 207.375,1.541c173.875,-2.058 328.667,-12.379 461.25,-30.95c-92.875,192.434 -217.208,366.809 -369.917,519.517Zm-1933.74,471.25c141.616,-74.25 283.904,-244.708 393.483,-401.792c56.517,-81 112.996,-170.666 168.754,-267.458c321.488,145.583 630.609,324.458 921.004,532.833c-478.658,255.792 -1017.68,284.75 -1483.24,136.417Zm-1196.58,-1110.83c147.312,5.929 420.42,28.246 769.275,107.646c24.962,5.683 49.904,11.637 74.837,17.716c-17.954,104.721 -31.204,204.796 -39.383,298.842c-15.5,178.204 -16.6,383.704 33.108,530.413c-151.287,-85.167 -290.025,-190.542 -414.529,-315.042c-185.596,-185.583 -328.413,-402.896 -423.308,-639.575Zm892.512,-118.258c-10.433,46.537 -20.054,92.4 -28.883,137.545c-23.475,-5.691 -46.959,-11.266 -70.463,-16.616c-397.087,-90.388 -695.058,-108.771 -833.183,-111.883c-34.213,-103.059 -59.371,-208.463 -75.296,-316.055c270.529,104.063 575.037,203.875 1007.83,307.009Zm-1225.03,-503.059c-365.787,-178.508 -532.946,-350.821 -458.137,-473.095c60.362,-99.059 280.141,-166.125 616.52,-190.888c-67.812,228.875 -91.396,466.825 -77.383,702.162c-27.862,-12.383 -54.688,-25.278 -81,-38.179Zm398.804,-953.412l0.046,-0.1c236.458,295.55 584.975,597.687 992.192,859.721c-57.742,175.733 -107.005,348.446 -146.763,513.958c-337.629,-81.683 -730.054,-197.217 -1039.97,-328.329c-25.704,-256.992 2.283,-517.146 79.45,-762.529c29.954,-95.159 69.692,-193.242 115.05,-282.721Zm-159.383,-814.454c62.233,-98.792 201.308,-149.78 396.587,-149.78c93.396,0 199.721,11.659 316.567,35.384c44.367,8.979 89.679,19.55 135.767,31.708l0.121,0.029c-278.801,161.242 -524.367,394.588 -707.2,687.134l-0.096,0.154c-172.554,-256.209 -224.43,-473.459 -141.746,-604.629Zm1870.16,-239.567c132.609,0 263.034,13.341 390.529,39.816c-150.379,65.459 -303.916,247.647 -420.458,414.713c-119.279,170.983 -238.391,380.242 -350.867,614.475c-303.604,-164.966 -590.383,-417.867 -727.462,-715.783c320.062,-227.65 704.963,-353.221 1108.26,-353.221Zm1353.25,560.804c248.25,248.262 412.959,546.437 496.25,858.246c-441.25,32.266 -845.583,22.138 -1207,-30.179c57.355,-234.342 95.967,-454.792 112.9,-649.513c18.684,-215.025 16.434,-469.716 -70.758,-613.046c252.567,97.038 478.15,243.475 668.608,434.492Zm-844.166,915.713c-49.629,186.742 -110.763,381.237 -181.988,577.616c-27.45,75.696 -55.879,150.213 -85.121,223.246c-267.55,-98.233 -551.525,-238.733 -830.708,-412.279c14.425,-42.179 29.312,-84.5 44.696,-126.913c66.171,-182.45 137.991,-358.05 213.3,-522.499c263.508,127.712 548.958,210.153 839.821,260.829Zm23.775,-1348.64c58.708,21.292 88.504,105.55 103.166,172.483c23.175,105.78 27.363,254.359 12.121,429.667c-16.692,191.896 -55.116,409.85 -112.304,641.921c-281.188,-48.379 -562.183,-128.146 -820.896,-253.717c110.263,-229.941 226.854,-435.004 343.425,-602.104c100.679,-144.325 199.142,-255.67 284.734,-322.004c44.662,-34.613 104.766,-71.662 157.395,-71.662c11.196,-0 22.063,1.679 32.359,5.416Zm-1728.87,291.646c153.838,315.183 450.317,574.867 769.363,747.121c-77.292,168.429 -150.909,348.187 -218.605,534.833c-12.62,34.8 -24.891,69.538 -36.887,104.205c-404.325,-263.188 -746.646,-565.184 -971.204,-857.451l-0.092,-0.116c118.512,-202.184 272.933,-380.68 457.425,-528.592Zm675.967,2085.25c-81.425,-16.754 -161.667,-34.258 -240.53,-52.437c37.126,-154.48 82.734,-315.529 135.976,-479.63c276.766,170.134 558.229,308.53 824.729,406.746c-33.434,79.817 -67.771,157.651 -102.846,232.976c-202.425,-29.038 -409.533,-65.051 -617.329,-107.655Zm455.837,427.629c-242.866,-104.65 -492.567,-191.137 -744.762,-257.904c8.891,-45.766 18.637,-92.333 29.225,-139.608c70.129,15.945 141.25,31.379 213.262,46.237c210.742,43.1 420.971,79.696 626.759,109.304c-40.755,84.33 -82.359,165.163 -124.484,241.971Zm-685.596,732.042c-58.704,-21.292 -88.504,-105.542 -103.166,-172.5c-23.171,-105.792 -27.363,-254.333 -12.117,-429.662c7.708,-88.671 20.104,-182.926 36.788,-281.522c240.62,64.13 478.908,146.601 710.941,245.976c-52.267,90.125 -105.112,173.708 -157.954,249.458c-100.683,144.333 -199.142,255.667 -284.738,322c-54.162,41.958 -131.041,87.542 -189.754,66.25Zm2514.76,-1007.48c-137.749,24.762 -309.541,39.208 -510.249,41.271c-311.417,3.8 -669.067,-20.792 -1045.97,-70.467c31.716,-69.042 62.804,-139.987 93.129,-212.545c116.962,39.129 230.467,70.12 338.721,92.087c124,25.175 237.208,37.604 338.208,37.604c236.792,0 406.417,-68.358 490.208,-201.358c13.792,-21.904 25.042,-45.134 33.709,-69.671l-120.709,-0c-1.999,3.671 -4.124,7.304 -6.333,10.841c-62.25,98.792 -201.334,149.825 -396.583,149.78c-93.417,-0 -199.75,-11.659 -316.588,-35.384c-101.854,-20.658 -208.662,-49.679 -318.792,-86.229c29.063,-72.716 57.321,-146.825 84.605,-222.062c73.579,-202.871 136.566,-403.976 187.52,-597.096c412.921,60.875 844.338,62.704 1258.76,31.45c26.208,127.125 39.458,257.233 39.458,389.371c-0,257.445 -50.042,507.149 -149.084,742.408Zm485.459,-332.767l-157.334,-3.612c50.542,65.521 61.918,125.883 30.417,176.958c-31.458,52.108 -106.791,94.933 -219.25,127.429c85.126,-226.483 127.959,-465.354 127.959,-710.416c-0,-529.98 -206.209,-1048.75 -595.376,-1436.83c-376.708,-376.696 -885.895,-595.367 -1436.83,-595.367c-309.366,-0 -608.295,68.563 -880.154,199.658l-0.266,0.134c-87.4,-26.671 -172.534,-48.53 -254.675,-65.18c-414.642,-84.141 -708.896,-25.987 -828.421,163.754c-113.742,180.454 -51.821,452.101 173.883,768.917l-0.083,0.15c-50.429,93.171 -98.971,203.688 -134.654,309.55c-424.084,25.28 -651.088,99.913 -733.634,235.088c-95.962,157.354 35.084,368.537 454.525,573.871c57.779,28.374 119.692,56.233 184.696,84.091c50.246,441.483 251.363,869.421 581.437,1199.5c186.763,186.25 403.963,332.792 645.93,435.459c741.241,312.666 1624.88,166.25 2228.25,-435.459c181.584,-181.583 325.542,-393.125 427.167,-627.35c206.875,-42.821 343.084,-109.887 397.251,-198.629c37.666,-61.391 33.041,-129.496 -10.834,-201.721Z" style="fill:#adcbf9;fill-rule:nonzero;"/><path d="M4717.04,3889.67l-281.042,3341.58c0,0 -29.459,202.542 121.208,202.917c247.75,0.583 1233.04,-0 1233.04,-0c0,-0 -186.416,-42.167 -184.167,-137.042c2.667,-111.833 328.459,-3439.08 328.459,-3439.08l-1217.5,31.625Z" style="fill:#414141;fill-rule:nonzero;"/><path d="M5870.21,7373.54c-48.708,0.125 -989.791,3.083 -1231.04,-0c-105.167,-1.334 -123.584,-93.5 -124.459,-153.167c-0.458,-28.583 3.167,-49.708 3.167,-49.708l7.334,-86.875l18.624,-221.375l16.459,-195.542l21.125,-251.333l17.792,-212.125l199.708,-2374.41l1217.5,-31.595c0,-0 -137.208,1392.42 -234.249,2406c-10.834,112.958 -21.167,221.208 -30.709,322.291c-3.083,32.292 -6.041,63.834 -8.916,94.542c-9,95.917 -17.251,183.958 -24.417,261.75c-3.75,40.958 -7.25,79.042 -10.375,113.917c-12.417,136.708 -19.667,224 -19.75,240.583c-0.042,9.667 0.75,18.667 2.375,27.042c19.958,106.5 161.542,110 179.833,110Z" style="fill:#a8a8a8;fill-rule:nonzero;"/><path d="M1760.23,2071.31l684.55,2749.69l93.725,376.583l318.829,1280.75l5923.37,0l-1175.17,-4407.03l-5845.31,0Z" style="fill:#a8a8a8;fill-rule:nonzero;"/><path d="M1760.23,2071.3l-94.871,31.621l1065.86,4471.07l126.137,-95.667l-1097.13,-4407.03Z" style="fill:#414141;fill-rule:nonzero;"/><path d="M2731.22,6574l5886.91,0l162.542,-95.667l-5923.31,0l-126.137,95.667Z" style="fill:#414141;fill-rule:nonzero;"/><rect x="4798.54" y="7374.88" width="1274.58" height="60.542" style="fill:#a8a8a8;fill-rule:nonzero;"/><path d="M5749.12,6573.96l-6.583,46.292l-1198.71,242.167l16.459,-195.542l7.833,-92.917l1181,0Z" style="fill:#414141;fill-rule:nonzero;"/><path d="M8470.99,5614.23l-938.365,-3484.66l-5757.32,1.364l-12.274,-58.949l5842.51,-0.682l944.912,3548.1l-79.463,-5.172Z" style="fill:#414141;fill-rule:nonzero;"/><path d="M5221.54,7374.88l-288.459,0c-125.833,-0.167 -232.541,-0.542 -293.916,-1.333c-105.167,-1.334 -123.584,-93.5 -124.459,-153.167l1193.04,-224.458c-12.417,136.708 -19.667,224 -19.75,240.583l-0,0.917c-0,9.333 0.833,18.041 2.375,26.125c19.958,106.5 161.542,110 179.833,110c-27.5,0.083 -339.041,1.041 -648.666,1.333Z" style="fill:#626262;"/><g><path d="M5067.17,7374.96c-46.209,0 -91.25,-0.041 -134.084,-0.083l288.459,0c-51.959,0.042 -103.875,0.083 -154.375,0.083Z" style="fill:#e78b37;fill-rule:nonzero;"/><path d="M2857.34,6478.33l-318.825,-1280.75l2920.86,388.584l-2602.02,892.166" style="fill:#626262;fill-rule:nonzero;"/><path d="M1760.23,2071.3l5845.32,0l948.417,3541.86l-5922.59,-6.503l-871.142,-3535.36Z" style="fill:#1d1d1d;fill-rule:nonzero;"/><path d="M5976.04,6060.88c-16.876,-86.833 -100.959,-157.25 -187.833,-157.25c-86.876,-0 -143.584,70.417 -126.709,157.25c16.875,86.875 101,157.292 187.833,157.292c86.875,-0 143.626,-70.417 126.709,-157.292Z" style="fill:#414141;fill-rule:nonzero;"/><path d="M8278.29,5459.67l-5473,-0l-619.825,-2469.09l-47.488,-189.333l-40.554,-161.509l-32.442,-129.304l-62.625,-249.408l5394.1,-0l3.792,13.721l64.917,235.687l35.666,129.304l44.542,161.509l52.209,189.333l680.708,2469.09Z" style="fill:#e9f3fe;fill-rule:nonzero;"/><path d="M8278.29,5468.12l-5473,-0l-619.825,-2469.11l-47.488,-189.33l-40.554,-161.512l-32.442,-129.3l-62.625,-249.412l5394.1,-0l3.792,13.724l64.917,235.688l35.666,129.3l44.542,161.512l52.209,189.33l680.708,2469.11Z" style="fill:#e9f3fe;fill-rule:nonzero;"/><path d="M7465.17,2510.43l-5400.18,0l-62.625,-249.408l5392.06,-0l5.833,13.721l64.917,235.687Z" style="fill:#afcdfb;fill-rule:nonzero;"/><path d="M2152.41,2385.73c-6.512,-26.145 9.396,-47.341 35.542,-47.341c26.146,-0 52.625,21.196 59.146,47.341c6.517,26.146 -9.392,47.342 -35.538,47.342c-26.145,-0 -52.629,-21.196 -59.15,-47.342Z" style="fill:#e9f3fe;fill-rule:nonzero;"/><path d="M2309.71,2385.73c-6.52,-26.145 9.388,-47.341 35.534,-47.341c26.146,-0 52.625,21.196 59.146,47.341c6.516,26.146 -9.392,47.342 -35.538,47.342c-26.146,-0 -52.625,-21.196 -59.142,-47.342Z" style="fill:#e9f3fe;fill-rule:nonzero;"/><path d="M2479.08,2385.73c-6.516,-26.145 9.396,-47.341 35.542,-47.341c26.146,-0 52.625,21.196 59.142,47.341c6.52,26.146 -9.392,47.342 -35.538,47.342c-26.146,-0 -52.625,-21.196 -59.146,-47.342Z" style="fill:#e9f3fe;fill-rule:nonzero;"/><path d="M4510.17,5468.12l-541.154,-0c-5.187,-42.292 -9.758,-87 -13.862,-133.667c-7.263,-83.625 -12.825,-173.625 -16.929,-267.208c-0.988,-21.625 -1.838,-43.375 -2.638,-65.333c-1.037,-27.917 -1.937,-56.167 -2.737,-84.542c-1.321,-48.208 -2.358,-96.958 -3.113,-146l-0.045,-0.167c-0.946,-62.541 -1.417,-125.5 -1.559,-188.208l0,-0.042c-0.046,-15.666 -0.046,-31.333 -0.046,-46.916l0,-0.042c0,-14.75 0.046,-29.333 0.096,-43.958c0.467,-135 2.496,-267.417 5.375,-390.559c6.221,-272.421 16.317,-499.433 21.692,-608.55l-0,-0.05c2.166,-44.795 3.583,-69.696 3.583,-69.696l0.142,0.051c1.225,0.187 9.429,1.695 22.35,4.808c9.479,2.312 21.504,5.47 35.179,9.667l0.05,-0c12.354,3.724 25.983,8.345 40.317,13.77l0.141,0.046c24.38,9.384 50.646,21.363 75.355,36.404c0.379,0.188 0.754,0.379 1.133,0.567c40.421,25.087 76.921,58.333 93.546,102.233c14.291,37.305 47.745,237.763 88.166,504.009c1.126,7.591 2.246,15.229 3.417,22.966c21.375,141.375 44.458,300 67.667,462c24.583,171.625 49.125,346.959 71.75,509.417c19.25,139.333 37.125,269.167 52.124,379Z" style="fill:#2b478b;fill-rule:nonzero;"/><path d="M4358.62,5468.12l-629.913,-0c-12.075,-51.958 -23.391,-102.083 -33.437,-149.125c-27.679,-129.583 -45.879,-235.75 -44.892,-292.833c0.471,-26.75 10.563,-47.667 27.917,-63.75c11.883,-11.042 27.162,-19.792 45.129,-26.625c53.146,-20.209 129.492,-23.5 209.421,-18.417c27.162,1.708 54.7,4.333 81.862,7.625c149.721,18.167 288.704,55.25 288.704,55.25c0,0 9.297,37.583 20.255,103.25c8.25,49.292 17.458,114.458 24.291,191.417c3.954,44.708 7.167,93.416 8.959,145.333c0.541,15.625 1.083,31.583 1.704,47.875Z" style="fill:#233862;fill-rule:nonzero;"/><path d="M4067.71,5026.92l-6.27,45.5l-30.513,221l-5.187,37.708l-18.909,137l-656.462,-0c-5.092,-90.542 -9.809,-178.792 -10.704,-255.708c-0.092,-8.5 -0.142,-16.875 -0.142,-25.084c0,-115.791 10.188,-201.666 43.383,-223.375c37.634,-24.541 162.455,-17.833 295.388,-1.541c13.25,1.583 26.596,3.333 39.942,5.125c77.479,10.416 155.004,23.291 217.345,34.375c32.346,5.75 60.596,11.041 82.567,15.25c31.029,5.958 49.562,9.75 49.562,9.75Z" style="fill:#c65447;fill-rule:nonzero;"/><path d="M3339.53,3537.14c0,0 360.642,-233.195 619.317,-113.937c41.221,19.004 88.242,72.038 121.9,109.129c93.504,103.03 276.213,1739.67 276.213,1739.67c-0,0 -518.646,175.667 -1017.43,-59.583l0,-1675.28Z" style="fill:#fff;fill-rule:nonzero;"/><path d="M3979.37,3417.29c-0,-0 365.092,149.625 414.55,264.591c49.458,114.967 210.166,820.95 210.166,903.742c0,82.792 -279.837,18.5 -324.875,-115c-37.416,-110.875 -163.6,-451.504 -230.137,-666.942l-69.704,-386.391Z" style="fill:#2b478b;fill-rule:nonzero;"/><path d="M3903.54,3531.3c-79.704,15.629 -196.784,-1.033 -282.504,-57.529c38.699,-92.438 54.566,-165.425 60.212,-212.654c0.329,-2.512 0.575,-4.942 0.821,-7.292c2.558,-24.479 2.187,-41.087 0.991,-48.712l206.055,-0c-0,-0 56.333,25.758 56.333,43.562c0,9.517 0.083,18.625 0.25,27.321c0.413,23.696 1.358,44.383 2.596,62.146c3.917,57.821 10.55,85.058 10.55,85.058c-0,0 25.179,92.317 -55.304,108.1Z" style="fill:#ffb27d;fill-rule:nonzero;"/><path d="M3948.3,3338.15c-156.108,30.167 -246.733,-55.142 -267.046,-77.025c-2.887,-3.129 -4.371,-4.983 -4.371,-4.983c1.65,-0.825 3.379,-1.567 5.192,-2.309c58.108,-23.533 189.983,-4.821 263.629,22.171c0.413,23.696 1.358,44.383 2.596,62.146Z" style="fill:#e2915a;fill-rule:nonzero;"/><path d="M3630.26,3171.25c27.896,150.133 221.621,145.204 305.338,135.766c23.562,-2.62 38.383,-5.628 38.383,-5.628c26.567,-7.096 41.388,-48.938 48.275,-103.747c13.667,-108.47 -3.6,-267.695 -21.917,-308.416c-27.583,-61.279 -79.525,-127.558 -274.616,-79.738c-195.125,47.855 -131.258,169.396 -95.463,361.763Z" style="fill:#ffb27d;fill-rule:nonzero;"/><path d="M4007.6,2805.47c-26.667,-36.913 -83.204,-82.021 -134.55,-109.8c-110.312,-59.68 -251.5,1.879 -252.092,2.137c-159.35,70.063 -200.962,191.975 -116.479,381.888c89.338,200.825 174.4,178.225 174.4,178.225c0,-0 -18.054,-11.229 -16.425,-73.821c0.096,-3.559 0.238,-6.529 0.4,-9.087c0.821,-12.825 -3.7,-25.688 -13.287,-34.246c-19.792,-17.667 -29.442,-71.092 -12.867,-85.967c19.992,-17.946 48.092,3.854 57.067,20.617c7.841,11.837 21.887,15.987 34.97,7.716c49.596,-31.354 17.38,-94.066 64.771,-132.429c47.392,-38.366 143.559,-6.154 214.654,-36.729c93.063,-34.675 19.53,-80.683 -0.562,-108.504Z" style="fill:#111;fill-rule:nonzero;"/><path d="M4033.2,5468.12l-785.246,-0c5.608,-162.833 12.825,-357.25 20.417,-554.083c1.933,-51.042 3.962,-102.292 5.941,-153.125c0.896,-21.542 1.696,-42.959 2.546,-64.375c17.354,-437.125 34.567,-831.875 38.196,-853.142c8.254,-48.1 16.033,-89.079 24.475,-124.637c24.663,-103.555 55.317,-160.329 122.183,-209.184c6.509,-4.954 59.984,-31.879 107.092,-55.362c38.479,-19.096 72.713,-35.792 73.75,-36.263l-0,-0.05l0.05,0c7.779,3.775 16.363,14.621 25.417,30.704c9.054,16.076 18.579,37.488 28.337,62.48c35.888,92.191 74.65,233.283 101.575,338.674l0.096,0.33l0.05,0.191l0,0.046c17.35,68.046 29.8,121.004 33.338,136.234c6.033,25.654 13.958,75.308 23.341,142.554l0,0.187c12.688,91.738 27.821,216.159 43.858,357.404l0,0.042c1.65,14.542 3.296,29.208 4.946,44c1.892,16.917 3.821,34.042 5.754,51.333l0,0.084c0.617,5.541 1.23,11.125 1.796,16.666l0,0.042c6.175,55.958 12.4,113.625 18.58,172.333l0.045,0.167c5.28,48.375 78.659,83.417 83.75,132.708c0.375,3.584 0.754,10.834 1.225,20.917c0.942,20.875 2.075,53.917 3.442,92.167c0.567,17 1.179,35.083 1.842,53.5c2.875,81.958 6.412,171.75 10.421,214.958c0.187,2.042 0.374,4.625 0.516,7.792c0.475,8.625 0.85,21.291 1.179,37.25c0.663,33.833 0.992,82.291 1.088,137.458Z" style="fill:#2b478b;fill-rule:nonzero;"/><path d="M3497.54,4019.62c-0.233,0.996 -12.504,442.008 319.246,495.591c331.75,53.584 111.325,67.75 111.325,67.75c0,0 -624.187,-26.541 -634.491,-43c-10.305,-16.5 203.92,-520.341 203.92,-520.341Z" style="fill:#233862;fill-rule:nonzero;"/><path d="M3777.84,4704.54c-0,-0 -6.225,4.416 -18.176,12.125l-0.62,0.375c-50.609,32.291 -200.821,120.375 -419.53,179.416c-22.95,6.209 -46.691,12.125 -71.129,17.542c1.938,-51 3.959,-102.25 5.934,-153.083c-28.888,-2.25 -56.538,-5.917 -82.217,-11.375c0.871,-6.709 1.775,-13.417 2.637,-20.167c27.821,-11.417 55.471,-22.417 82.138,-32.833c21.717,-8.5 42.733,-16.584 62.637,-24.042c89.842,-34.125 156.438,-57.25 156.438,-57.25l265.938,84.208l15.95,5.084Z" style="fill:#233862;fill-rule:nonzero;"/><path d="M3848.22,4697.17c-0,-0 -34.167,8.541 -88.563,19.5l-0.579,0.125c-100.308,20.125 -268.941,48.416 -419.571,46.875c-22.212,-0.25 -44.054,-1.084 -65.195,-2.75c-28.888,-2.25 -56.538,-5.917 -82.217,-11.375c-55.054,-11.625 -101.171,-31.292 -131.337,-62.042c-224.063,-228.208 122.275,-1047.32 195.091,-1127.02c85.021,-93.054 240.179,-125.692 325.859,-136.9c3.583,-0.454 7.004,-0.908 10.341,-1.32c30.125,-3.588 49.454,-4.326 50.525,-4.372l0.042,0c-0,0 -6.717,21.596 -17.967,58.234c-4.371,14.175 -9.437,30.621 -15,48.958c-52.625,172.346 -154.175,511.058 -198.925,702.088c-16.404,69.879 -25.183,120 -21.183,134.962c17.471,65.204 198.512,98.788 313.204,113.621c47.846,6.167 84.15,9.083 92.271,9.708c0.575,0 1.112,0.042 1.687,0.125l6.638,27.209l15.867,65.25l15.616,64.083l13.396,55.042Z" style="fill:#2b478b;fill-rule:nonzero;"/><path d="M4473.17,5089.79l-769.538,-32.417l156.125,-959.013l769.538,32.421l-156.125,959.009Z" style="fill:#827b75;fill-rule:nonzero;"/><path d="M3796.71,4485.58c0,0 149.801,-10.416 157.313,24.5c17.513,81.375 -128.783,148.209 -176.179,143.625c-47.392,-4.541 -15.608,-173.541 18.866,-168.125Z" style="fill:#ffb27d;fill-rule:nonzero;"/><path d="M4587.21,4325.54c-0,-0 -143.334,-44.834 -158.709,-12.584c-35.875,75.125 91,174 138.167,180.5c47.166,6.5 55.333,-165.25 20.542,-167.916Z" style="fill:#ffb27d;fill-rule:nonzero;"/><path d="M3658.16,3369.73c0,0 -63.02,30.038 -94.612,75.371c0,-0 235.562,408.992 234.512,405.158c-1.054,-3.833 -79.629,-428.141 -139.9,-480.529Z" style="fill:#233862;fill-rule:nonzero;"/><path d="M3951.56,3375.5c20.745,7.829 60.537,48.592 69.504,71.129l28.004,357.054c-0,0 -59.792,-262.033 -90.225,-380.479c-7.738,-30.108 -6.313,-39.254 -7.283,-47.704Z" style="fill:#233862;fill-rule:nonzero;"/><path d="M4114.85,4109.11c-0,0 6.083,-26.608 41.112,-23.516c35.042,3.091 231.792,12.77 231.792,12.77c0,0 37.959,-0.625 34.458,23.696l-307.362,-12.95Z" style="fill:#c65447;fill-rule:nonzero;"/><path d="M3889.12,3205.12c-0,-0 25.545,23.283 66.754,16.07c24.442,-4.275 38.121,-36.058 38.121,-36.058c-0,0 -46.967,-8.445 -104.875,19.988Z" style="fill:#fff;fill-rule:nonzero;"/><path d="M7535.5,3503.56l-568.417,2.1l-184.333,-705.687l568.417,-2.1l184.333,705.687Z" style="fill:#fff;fill-rule:nonzero;"/><path d="M7210.21,2890.6l-238.333,0.879l-2.75,-10.442l238.333,-0.879l2.75,10.442Z" style="fill:#adcbf9;fill-rule:nonzero;"/><path d="M7248.25,2919.6l-299.25,1.104l-2.708,-10.441l299.25,-1.105l2.708,10.442Z" style="fill:#adcbf9;fill-rule:nonzero;"/><path d="M7330.54,3063.22l-388.708,1.437l-2.708,-10.446l388.667,-1.433l2.749,10.442Z" style="fill:#adcbf9;fill-rule:nonzero;"/><path d="M7339.54,3097.63l-388.709,1.434l-2.708,-10.438l388.666,-1.437l2.751,10.441Z" style="fill:#adcbf9;fill-rule:nonzero;"/><path d="M7348.5,3132.04l-388.667,1.434l-2.75,-10.442l388.709,-1.433l2.708,10.441Z" style="fill:#adcbf9;fill-rule:nonzero;"/><path d="M7357.5,3166.45l-388.667,1.437l-2.75,-10.445l388.667,-1.434l2.75,10.442Z" style="fill:#adcbf9;fill-rule:nonzero;"/><path d="M7366.5,3200.85l-388.708,1.433l-2.709,-10.441l388.667,-1.434l2.75,10.442Z" style="fill:#adcbf9;fill-rule:nonzero;"/><path d="M7388.38,3284.58l-388.708,1.437l-2.709,-10.442l388.667,-1.438l2.75,10.443Z" style="fill:#adcbf9;fill-rule:nonzero;"/><path d="M7397.33,3318.99l-388.667,1.437l-2.749,-10.446l388.708,-1.433l2.708,10.442Z" style="fill:#adcbf9;fill-rule:nonzero;"/><path d="M7406.33,3353.4l-388.666,1.438l-2.751,-10.446l388.667,-1.433l2.75,10.441Z" style="fill:#adcbf9;fill-rule:nonzero;"/><path d="M7415.33,3387.81l-388.709,1.434l-2.708,-10.442l388.666,-1.433l2.751,10.441Z" style="fill:#adcbf9;fill-rule:nonzero;"/><path d="M7424.29,3422.22l-388.666,1.433l-2.708,-10.441l388.667,-1.434l2.707,10.442Z" style="fill:#adcbf9;fill-rule:nonzero;"/><path d="M7764.54,4380.46l-568.417,2.084l-184.334,-705.679l568.417,-2.096l184.334,705.691Z" style="fill:#fff;fill-rule:nonzero;"/><path d="M7439.25,3767.49l-238.333,0.879l-2.75,-10.442l238.375,-0.879l2.708,10.442Z" style="fill:#adcbf9;fill-rule:nonzero;"/><path d="M7477.29,3796.5l-299.209,1.104l-2.75,-10.442l299.25,-1.103l2.709,10.441Z" style="fill:#adcbf9;fill-rule:nonzero;"/><path d="M7559.58,3940.12l-388.667,1.437l-2.75,-10.446l388.708,-1.433l2.709,10.442Z" style="fill:#adcbf9;fill-rule:nonzero;"/><path d="M7568.58,3974.53l-388.708,1.433l-2.708,-10.441l388.667,-1.434l2.749,10.442Z" style="fill:#adcbf9;fill-rule:nonzero;"/><path d="M7577.54,4008.93l-388.667,1.433l-2.708,-10.442l388.666,-1.434l2.709,10.443Z" style="fill:#adcbf9;fill-rule:nonzero;"/><path d="M7586.54,4043.34l-388.667,1.433l-2.75,-10.442l388.708,-1.433l2.709,10.442Z" style="fill:#adcbf9;fill-rule:nonzero;"/><path d="M7595.54,4077.75l-388.709,1.433l-2.708,-10.441l388.667,-1.433l2.75,10.441Z" style="fill:#adcbf9;fill-rule:nonzero;"/><path d="M7617.42,4161.48l-388.709,1.438l-2.708,-10.446l388.667,-1.433l2.75,10.441Z" style="fill:#adcbf9;fill-rule:nonzero;"/><path d="M7626.38,4195.88l-388.666,1.458l-2.709,-10.458l388.667,-1.417l2.708,10.417Z" style="fill:#adcbf9;fill-rule:nonzero;"/><path d="M7635.38,4230.29l-388.667,1.458l-2.749,-10.458l388.708,-1.417l2.708,10.417Z" style="fill:#adcbf9;fill-rule:nonzero;"/><path d="M7644.38,4264.71l-388.708,1.417l-2.709,-10.417l388.667,-1.458l2.75,10.458Z" style="fill:#adcbf9;fill-rule:nonzero;"/><path d="M7653.33,4299.13l-388.667,1.413l-2.709,-10.417l388.667,-1.458l2.709,10.462Z" style="fill:#adcbf9;fill-rule:nonzero;"/><path d="M7995.17,5263.25l-568.459,2.083l-184.333,-705.666l568.458,-2.125l184.334,705.708Z" style="fill:#fff;fill-rule:nonzero;"/><path d="M7669.83,4650.29l-238.333,0.875l-2.75,-10.459l238.375,-0.875l2.708,10.459Z" style="fill:#adcbf9;fill-rule:nonzero;"/><path d="M7707.88,4679.29l-299.209,1.125l-2.749,-10.459l299.25,-1.125l2.708,10.459Z" style="fill:#adcbf9;fill-rule:nonzero;"/><path d="M7790.17,4822.92l-388.667,1.416l-2.75,-10.416l388.708,-1.459l2.709,10.459Z" style="fill:#adcbf9;fill-rule:nonzero;"/><path d="M7799.17,4857.33l-388.709,1.417l-2.708,-10.458l388.667,-1.417l2.75,10.458Z" style="fill:#adcbf9;fill-rule:nonzero;"/><path d="M7808.17,4891.71l-388.708,1.459l-2.709,-10.459l388.667,-1.416l2.75,10.416Z" style="fill:#adcbf9;fill-rule:nonzero;"/><path d="M7817.12,4926.12l-388.667,1.458l-2.749,-10.458l388.708,-1.417l2.708,10.417Z" style="fill:#adcbf9;fill-rule:nonzero;"/><path d="M7826.12,4960.54l-388.667,1.416l-2.75,-10.416l388.667,-1.459l2.75,10.459Z" style="fill:#adcbf9;fill-rule:nonzero;"/><path d="M7848,5044.29l-388.667,1.416l-2.75,-10.458l388.667,-1.417l2.75,10.459Z" style="fill:#adcbf9;fill-rule:nonzero;"/><path d="M7857,5078.67l-388.708,1.458l-2.709,-10.458l388.667,-1.417l2.75,10.417Z" style="fill:#adcbf9;fill-rule:nonzero;"/><path d="M7865.96,5113.08l-388.666,1.459l-2.75,-10.459l388.708,-1.416l2.708,10.416Z" style="fill:#adcbf9;fill-rule:nonzero;"/><path d="M7874.96,5147.5l-388.666,1.417l-2.75,-10.417l388.666,-1.458l2.75,10.458Z" style="fill:#adcbf9;fill-rule:nonzero;"/><path d="M7883.96,5181.92l-388.708,1.416l-2.708,-10.416l388.666,-1.459l2.75,10.459Z" style="fill:#adcbf9;fill-rule:nonzero;"/><path d="M7247.75,5269.21l-1988.08,7.334l-572.166,-2190.53l258.958,-278.883l1656.58,-6.116l644.708,2468.2Z" style="fill:#fff;fill-rule:nonzero;"/><path d="M6055.42,3171.2l-700.667,2.587l-8.042,-30.695l700.667,-2.588l8.042,30.696Z" style="fill:#adcbf9;fill-rule:nonzero;"/><path d="M6167.29,3256.48l-879.709,3.246l-8,-30.696l879.667,-3.246l8.042,30.696Z" style="fill:#adcbf9;fill-rule:nonzero;"/><path d="M6409.17,3678.68l-1142.62,4.221l-8.042,-30.7l1142.62,-4.217l8.041,30.696Z" style="fill:#adcbf9;fill-rule:nonzero;"/><path d="M6435.58,3779.83l-1142.62,4.217l-8.042,-30.696l1142.62,-4.217l8.041,30.696Z" style="fill:#adcbf9;fill-rule:nonzero;"/><path d="M6462,3880.97l-1142.62,4.217l-8,-30.696l1142.58,-4.217l8.042,30.696Z" style="fill:#adcbf9;fill-rule:nonzero;"/><path d="M6488.42,3982.12l-1142.62,4.221l-8.001,-30.7l1142.58,-4.217l8.042,30.696Z" style="fill:#adcbf9;fill-rule:nonzero;"/><path d="M6514.83,4083.28l-1142.63,4.221l-8,-30.7l1142.62,-4.217l8.001,30.696Z" style="fill:#adcbf9;fill-rule:nonzero;"/><path d="M6579.12,4329.42l-1142.62,4.204l-8,-30.667l1142.62,-4.25l8,30.713Z" style="fill:#adcbf9;fill-rule:nonzero;"/><path d="M6605.54,4430.58l-1142.62,4.209l-8,-30.709l1142.62,-4.208l7.999,30.708Z" style="fill:#adcbf9;fill-rule:nonzero;"/><path d="M6631.96,4531.71l-1142.63,4.25l-8,-30.708l1142.62,-4.208l8.001,30.666Z" style="fill:#adcbf9;fill-rule:nonzero;"/><path d="M6658.38,4632.88l-1142.58,4.208l-8.042,-30.708l1142.62,-4.208l8,30.708Z" style="fill:#adcbf9;fill-rule:nonzero;"/><path d="M6684.79,4734.04l-1142.58,4.208l-8.042,-30.708l1142.63,-4.209l8,30.709Z" style="fill:#adcbf9;fill-rule:nonzero;"/><path d="M4687.5,3086.01l331.5,-1.225l-72.542,-277.658l-258.958,278.883Z" style="fill:#adcbf9;fill-rule:nonzero;"/><path d="M9475.96,6987.17l-1618.5,-0l0,-571.625l1623.67,-0c126.25,-0 228.584,102.333 228.584,228.541l-0,109.334c-0,129.083 -104.667,233.75 -233.751,233.75Z" style="fill:#fcecdb;fill-rule:nonzero;"/><path d="M11091.1,6650.71l0,86c0,45.959 -12.334,89 -33.958,126c-43.375,74.417 -124.084,124.459 -216.5,124.459l-3032.79,-0c-20.084,-0 -36.333,-16.292 -36.333,-36.292l-0,-12.917c-0,-20 16.249,-36.291 36.333,-36.291l1848.75,-0c9.917,-12.042 18.625,-25.084 25.959,-38.959c17.333,-32.625 27.125,-69.833 27.125,-109.291l-0,-109.334c-0,-20.083 -2.626,-39.625 -7.501,-58.166c-8.291,-31.459 -23.083,-60.292 -42.875,-84.875l-1851.46,-0c-20.084,-0 -36.333,-16.25 -36.333,-36.334l-0,-12.833c-0,-20.083 16.249,-36.333 36.333,-36.333l3048.08,-0c107.417,-0 198,72 226.125,170.375c5.917,20.583 9.042,42.333 9.042,64.791Z" style="fill:#e37d25;fill-rule:nonzero;"/><path d="M11082.1,6585.92l-1379.88,-0c-8.291,-31.459 -23.083,-60.292 -42.875,-84.875l-1851.46,-0c-20.084,-0 -36.333,-16.25 -36.333,-36.334l-0,-12.833c-0,-20.083 16.249,-36.333 36.333,-36.333l3048.08,-0c107.417,-0 198,72 226.125,170.375Z" style="fill:#ff5700;fill-rule:nonzero;"/><path d="M7857.46,6701.33l224.583,9.625l-224.583,5.792l0,-15.417Z" style="fill:#f4d2b8;fill-rule:nonzero;"/><path d="M7857.46,6791.04l534.25,9.625l-534.25,5.791l0,-15.416Z" style="fill:#f4d2b8;fill-rule:nonzero;"/><path d="M8243.46,7430.58l1722.92,0l-0,-444.625l-1736.92,0c-118.916,0 -215.291,96.417 -215.291,215.334c-0,126.625 102.625,229.291 229.292,229.291Z" style="fill:#437627;fill-rule:nonzero;"/><path d="M9867.46,7430.58l1960.88,0l-0,-444.625l-1965.83,0c-120.917,0 -218.917,98 -218.917,218.917l0,1.833c0,123.625 100.25,223.875 223.875,223.875Z" style="fill:#f0dfcd;fill-rule:nonzero;"/><path d="M9512.67,7430.58l2383.75,0c18.376,0 33.251,-14.875 33.251,-33.25c0,-18.375 -14.875,-33.25 -33.251,-33.25l-2383.75,0c-18.376,0 -33.25,14.875 -33.25,33.25c-0,18.375 14.874,33.25 33.25,33.25Z" style="fill:#2f571a;fill-rule:nonzero;"/><path d="M9512.67,7052.46l2383.75,0c18.376,0 33.251,-14.875 33.251,-33.25c0,-18.375 -14.875,-33.25 -33.251,-33.25l-2383.75,0c-18.376,0 -33.25,14.875 -33.25,33.25c-0,18.375 14.874,33.25 33.25,33.25Z" style="fill:#3f5931;fill-rule:nonzero;"/><path d="M11828.3,7208.29l-264.876,7.458l264.876,4.5l-0,-11.958Z" style="fill:#f4d2b8;fill-rule:nonzero;"/><path d="M11828.3,7105.96l-630.167,7.459l630.167,4.5l-0,-11.959Z" style="fill:#f4d2b8;fill-rule:nonzero;"/><path d="M11204.7,7111.92c0,-0 27,19.125 35.958,50.541c1.583,5.459 2.584,11.375 2.791,17.542c1.501,41.75 0,136.167 0,136.167l79.709,-47.209l79.541,47.209l0,-128c0,-24.209 -6.833,-47.709 -19.499,-63.125c-6.125,-7.5 -13.584,-13.125 -22.042,-13.125l-156.458,-0Z" style="fill:#699dee;fill-rule:nonzero;"/><path d="M11204.7,7111.92c0,-0 27,19.125 35.958,50.541l159.75,1.875c0,0 -6.25,-45 -39.25,-52.416l-156.458,-0Z" style="fill:#568cdb;fill-rule:nonzero;"/><path d="M9666.96,6416.75l1760.33,-0l-0,-653.25l-1766.13,-0c-140.957,-0 -255.25,114.25 -255.25,255.25l0,136.958c0,144.167 116.876,261.042 261.043,261.042Z" style="fill:#efdbc5;fill-rule:nonzero;"/><path d="M9447.33,6016.96l-0,140.584c0.416,60.041 33.666,112.125 82.499,140c24.042,13.666 51.834,21.458 81.375,21.458l1911.67,-0c22.417,-0 40.583,18.167 40.583,40.583l0,16.584c0,22.416 -18.166,40.583 -40.583,40.583l-3302.46,-0c-94.75,-0 -178.5,-47.125 -229.083,-119.208c-31.876,-45.459 -50.626,-100.75 -50.626,-160.5l0,-110.917c0,-40.958 9.375,-79.708 26.084,-114.208c42.5,-87.875 132.417,-148.417 236.542,-148.417l3319.54,-0c22.417,-0 40.583,18.125 40.583,40.542l0,16.583c0,22.375 -18.166,40.542 -40.583,40.542l-1917.5,-0c-45.833,-0 -87.333,19.541 -116.292,50.75c-25.666,27.625 -41.5,64.458 -41.749,105.041Z" style="fill:#b5453c;fill-rule:nonzero;"/><path d="M11427.3,6090.12l-245.084,10.958l245.084,6.625l-0,-17.583Z" style="fill:#f4d2b8;fill-rule:nonzero;"/><path d="M11427.3,5939.79l-583.042,10.958l583.042,6.625l-0,-17.583Z" style="fill:#f4d2b8;fill-rule:nonzero;"/><path d="M10850.2,5948.58c0,0 38.5,20.709 51.209,54.75c2.291,5.959 3.708,12.334 4,19.042c2.125,45.25 -0,147.625 -0,147.625l113.625,-51.167l113.291,51.167l0,-138.75c0,-26.25 -9.709,-51.75 -27.791,-68.5c-8.751,-8.083 -19.334,-14.167 -31.375,-14.167l-222.959,0Z" style="fill:#f99746;fill-rule:nonzero;"/><path d="M10850.2,5948.58c0,0 38.5,20.709 51.209,54.75l227.666,2.042c-0,-0 -8.916,-48.75 -55.916,-56.792l-222.959,0Z" style="fill:#ed7d2b;fill-rule:nonzero;"/><path d="M9697.58,5521.29c100.751,175.333 227.459,243.041 227.459,243.041l527.25,0c-0,0 -831.584,-376.833 -754.709,-243.041Z" style="fill:#233862;fill-rule:nonzero;"/><path d="M10102.5,6878.12c13.75,15.75 15.5,33.333 8.708,52.125l-0.167,0.25c-12.583,34.75 -54.083,73.583 -102.374,112.333c-6.167,4.959 -11.625,9.5 -16.417,13.667c-1.25,1.125 -2.5,2.208 -3.708,3.333c-0.959,0.834 -1.875,1.75 -2.833,2.542c-45.001,41.5 -28.042,51 -108.918,135.167c-92.166,95.916 -155.624,97.625 -173.666,88.916c-15.291,-7.458 15.75,-58.333 50.125,-115.5c1.666,-2.75 3.292,-5.541 5,-8.333c4.584,-7.625 9.125,-15.333 13.708,-22.958c40.292,-68.834 29.917,-101.125 20.375,-203.5c-7.749,-83.25 -129.458,-464.917 -129.458,-464.917l176.667,-30.458c-0,-0 53.166,303.958 111.792,350.75c31.333,24.958 66.416,25.291 96.583,43.791c2.125,1.25 4.208,2.584 6.25,3.959c17.125,11.333 34.541,23.041 48.333,38.833Z" style="fill:#ffb27d;fill-rule:nonzero;"/><path d="M10102.5,6878.12c13.75,15.75 15.5,33.333 8.708,52.125l-0.167,0.25c-15.374,34.708 -55.874,73.333 -102.541,111.958c-6.083,5.042 -11.458,9.709 -16.25,14.042c-1.25,1.125 -2.5,2.208 -3.708,3.333c-0.959,0.834 -1.875,1.75 -2.833,2.542c-45.001,41.5 -28.042,51 -108.918,135.167c-92.166,95.916 -155.624,97.625 -173.666,88.916c-15.291,-7.458 15.75,-58.333 50.125,-115.5c17.959,-6.583 101.292,-40.458 164.333,-121.083c55.5,-70.833 92.5,-161.833 130.334,-214.542c2.125,1.25 4.208,2.584 6.25,3.959c17.125,11.333 34.541,23.041 48.333,38.833Z" style="fill-rule:nonzero;"/><path d="M8678.04,6767.79c-10.917,54.541 -88.625,45.416 -175.459,24.208c-86.875,-21.208 -66.208,4 -189.792,-9.667c-123.624,-13.708 -161.041,-59.791 -164.833,-78.166c-3.375,-16.292 57.709,-22.042 123.208,-29.584c8.251,-0.916 16.501,-1.958 24.792,-2.958c73.959,-9.292 128.125,-57 195.292,-96.208c63.621,-37.125 158.583,-188.375 158.583,-188.375l169.5,13.416c-0,0 -88.958,135.125 -123.333,193.834c-20.254,34.541 -19.167,80.25 -16.667,115.5c1.334,19.208 2.579,38.791 -1.291,58Z" style="fill:#ffb27d;fill-rule:nonzero;"/><path d="M8502.58,6792c-86.875,-21.208 -66.208,4 -189.792,-9.667c-123.624,-13.708 -161.041,-59.791 -164.833,-78.166c-3.375,-16.292 57.709,-22.042 123.208,-29.584l0.626,1.25c-0,0 74.125,52.542 177,55c83.833,2.042 172.662,-21.958 230.541,-21.041c1.334,19.208 2.579,38.791 -1.291,58c-10.917,54.541 -88.625,45.416 -175.459,24.208Z" style="fill:#040609;fill-rule:nonzero;"/><path d="M9327.58,5684l158.457,426.333l206.876,556.709c-0,-0 56.125,5.458 109.874,-10.042c49.501,-14.292 106.292,-51.708 106.292,-51.708c0,-0 -57.417,-597.75 -164.583,-940.875c-27.458,-88.084 -58.25,-159.334 -92.208,-199.417c-166.084,-196.333 -324.708,219 -324.708,219Z" style="fill:#233862;fill-rule:nonzero;"/><path d="M9488.71,5006.88c103.792,-33.5 399.875,9.5 697.25,67.708l62.292,-102.708l642.375,-50.167c0,0 212,470.084 95.958,769.625c-17.083,44 -50.958,72.25 -108.75,73.167l-9.375,-0c0,-0 -382.333,-0.208 -506.499,-0.208c-319.459,-0 -676.084,-219.584 -722.251,-228.834c-75.5,-15.083 -105.708,135.917 -181.208,294.5c-75.542,158.584 -709.834,702.292 -709.834,702.292c0,-0 -97.499,0.958 -137.791,-14.125c-43.292,-16.25 -59.129,-37.333 -59.129,-37.333c-0,-0 702.838,-1398.42 936.962,-1473.92Z" style="fill:#2b478b;fill-rule:nonzero;"/><path d="M10252,4087.21c228.749,125.954 692.791,387.079 695.208,385.37c0,0 170.583,64.292 267.333,0c161.292,-107.083 247.792,-395.366 -47.167,-643.441c-147.124,-123.725 -251.624,-153.846 -267.499,-351.401c-8.626,-107.174 -155.125,-460.899 -398.542,-428.182c-20.334,2.733 -145.584,8.574 -227.875,51.787c-209.666,110.12 -364.417,937.116 -21.458,985.867Z" style="fill:#2d1f0e;fill-rule:nonzero;"/><path d="M10337.1,4029.43c-1,0.645 57.918,205.888 133.877,172.258c71.416,-31.566 286.811,-364.984 285.728,-365.047c-32.459,-1.5 -68.167,-29.908 -95.626,-216.324l-13.833,4.962l-232.667,83.716c0,0 16.876,74.655 27.75,145.73c9.209,59.675 -92.52,166.263 -105.229,174.705Z" style="fill:#ffb27d;fill-rule:nonzero;"/><path d="M10414.6,3708.99c0,0 16.876,74.655 27.75,145.73c133.667,-24.054 186.084,-157.196 204.917,-229.446l-232.667,83.716Z" style="fill:#e6813d;fill-rule:nonzero;"/><path d="M10380,3783.09c0,-0 318.292,-42.721 288.625,-240.546c-29.624,-197.817 -8.542,-336.559 -213.041,-317.646c-204.459,18.912 -232.542,100.304 -238.709,168.742c-6.166,68.433 79.542,395.466 163.125,389.45Z" style="fill:#ffb27d;fill-rule:nonzero;"/><path d="M10228.4,3285.2c-0,0 195.988,146.988 334.571,161.146c138.625,14.154 198.887,-1.725 198.887,-1.725c0,-0 -81.708,-67.829 -130.875,-177.296c-14.458,-32.266 -45.083,-54.408 -80.334,-57.45c-98.958,-8.546 -286.583,-12.441 -322.249,75.325Z" style="fill:#2d1f0e;fill-rule:nonzero;"/><path d="M10327.2,3227.86c-0,-0 -39.554,107.531 -61.013,156.418c-20.708,47.175 -26.916,160.009 -10.416,204.821c-0,0 -106.209,-206.521 -46.083,-306.858c63.75,-106.396 117.512,-54.381 117.512,-54.381Z" style="fill:#2d1f0e;fill-rule:nonzero;"/><path d="M10175.7,4448.92c9.625,644.333 2.667,509.708 73.125,570.833c17.001,14.708 64.75,23.5 127.584,27.625c197.583,13.125 544.875,-19.417 558.083,-55.917c45.583,-126.375 13.417,-165.625 51.458,-359.041c3.959,-20.542 8.834,-42.834 14.583,-67.084c31.709,-132.833 62.584,-178.041 -49.875,-391.458c-102,-193.342 -219.305,-355.54 -217.499,-344.592c8.261,50.094 -40.235,123.066 -102.272,183.196c-68.035,65.943 -156.266,102.023 -181.703,103.03c-78.436,3.104 -6.817,-260.751 -6.817,-260.751c-0,0 -271.375,279.855 -266.667,594.159Z" style="fill-rule:nonzero;"/><path d="M9486.04,6110.33l206.876,556.709c-0,-0 56.125,5.458 109.874,-10.042c49.501,-14.292 106.292,-51.708 106.292,-51.708c0,-0 -57.417,-597.75 -164.583,-940.875l-258.459,445.916Z" style="fill:#2b478b;fill-rule:nonzero;"/><path d="M10442.3,3854.72c-0,0 -276.875,46.942 -309.375,166.162c-32.541,119.217 -223.875,820.075 -223.875,820.075c0,0 140.75,25.292 205.792,-39.75c65.041,-65 226.291,-603.291 226.291,-603.291l101.167,-343.196Z" style="fill-rule:nonzero;"/><path d="M10376.4,5047.38c197.583,13.125 544.875,-19.417 558.083,-55.917c45.583,-126.375 13.417,-165.625 51.458,-359.041l-95.333,-268.334c0,0 15.792,298.834 -72.375,377.417c-88,78.583 -360.792,151.708 -403.625,217.375c-20.666,31.542 -34.25,63.125 -38.208,88.5Z" style="fill:#232323;fill-rule:nonzero;"/><path d="M10602.8,4921.71c0,0 -194.916,-43.375 -226.374,-26.083c-31.459,17.292 -108.333,80.292 -117.959,102.208c-9.625,21.917 70.042,-16.666 95.917,-23.583c16.792,-4.5 60.958,10.833 82.833,18.125c91.959,30.667 148.334,14.875 148.334,14.875l17.249,-85.542Z" style="fill:#ffb27d;fill-rule:nonzero;"/><path d="M10733.3,3829.14c0,-0 261.709,16.125 352.334,142.491c127.541,177.888 380.541,935.992 235.542,1037.12c-163.293,113.875 -743.209,29.792 -743.209,29.792c-0,-0 -19.291,-90.209 7.542,-133.834c26.875,-43.625 463.208,-114.125 483.333,-134.25c20.125,-20.166 -251.708,-392.708 -251.708,-453.12c0,-60.421 -83.834,-488.196 -83.834,-488.196Z" style="fill-rule:nonzero;"/><path d="M10367,4949.88c-0,-0 -40.834,52.667 -54.209,58.958c-13.416,6.292 -22.042,4.709 -22.042,4.709l27.501,-49.542l48.75,-14.125Z" style="fill:#ffb27d;fill-rule:nonzero;"/><path d="M10376.4,4895.62l-118.75,57.667c0,-0 5.042,8.25 19.667,7.583c14.625,-0.667 51.499,-14.167 51.499,-14.167l47.584,-51.083Z" style="fill:#ffb27d;fill-rule:nonzero;"/><path d="M10312.8,5089.54l-939.292,-0l-282.583,-702.667l937.875,-0l284,702.667Z" style="fill:#919191;fill-rule:nonzero;"/><path d="M9362.42,5062.17l1240.37,-0l0,27.375l-1229.33,-0l-11.041,-27.375Z" style="fill:#3d3d3d;fill-rule:nonzero;"/><path d="M9610.54,4738.21c-7.083,-24.708 7.208,-44.708 31.916,-44.708c24.709,0 50.459,20 57.542,44.708c7.083,24.709 -7.208,44.709 -31.916,44.709c-24.668,-0 -50.459,-20 -57.542,-44.709Z" style="fill:#fff;fill-rule:nonzero;"/><path d="M1776.97,5365.5l-20.005,13.833c-21.354,14.834 -50.77,9.5 -65.57,-11.875l-116.342,-167.833c-14.8,-21.375 -9.471,-50.792 11.887,-65.583l28.65,-19.875c4.188,-2.875 9.934,-1.834 12.83,2.333c2.904,4.208 1.862,9.917 -2.325,12.833l-28.65,19.875c-12.996,9 -16.242,26.917 -7.234,39.917l116.338,167.833c9.008,13 26.912,16.25 39.908,7.25l20.008,-13.875c12.996,-9 16.242,-26.916 7.234,-39.916l-77.229,-111.417c-2.9,-4.208 -1.859,-9.958 2.325,-12.833c4.187,-2.917 9.933,-1.875 12.833,2.333l77.229,111.417c14.8,21.333 9.471,50.75 -11.887,65.583Z" style="fill:#afcdfb;fill-rule:nonzero;"/><path d="M1904.5,5531l-35.863,24.875c-33.295,23.083 -80.499,12.833 -105.225,-22.833l-174.908,-252.375c-2.9,-4.167 -1.858,-9.917 2.329,-12.834c4.184,-2.875 9.93,-1.833 12.829,2.334l174.909,252.333c18.933,27.333 54.625,35.5 79.562,18.208l35.863,-24.833c24.937,-17.292 29.821,-53.583 10.887,-80.917l-199.229,-287.416c-18.933,-27.334 -54.621,-35.5 -79.562,-18.209c-4.184,2.917 -9.93,1.875 -12.829,-2.333c-2.905,-4.167 -1.863,-9.917 2.324,-12.833c33.296,-23.084 80.501,-12.834 105.225,22.875l199.23,287.416c24.725,35.667 17.754,83.5 -15.542,106.542Z" style="fill:#afcdfb;fill-rule:nonzero;"/><path d="M2145.11,6849.04l4.312,35.541c4.608,37.959 -22.517,72.584 -60.467,77.167l-298.266,36.208c-37.95,4.584 -72.571,-22.541 -77.175,-60.458l-6.18,-50.917c-0.904,-7.458 4.396,-14.208 11.834,-15.125c7.437,-0.875 14.2,4.417 15.104,11.834l6.175,50.916c2.804,23.125 23.875,39.625 46.971,36.834l298.267,-36.209c23.1,-2.791 39.608,-23.875 36.804,-46.958l-4.313,-35.583c-2.804,-23.084 -23.875,-39.584 -46.971,-36.792l-198,24.042c-7.437,0.875 -14.2,-4.417 -15.1,-11.834c-0.904,-7.458 4.396,-14.208 11.834,-15.125l198,-24c37.945,-4.625 72.566,22.5 77.171,60.459Z" style="fill:#afcdfb;fill-rule:nonzero;"/><path d="M2448.05,6796.67l7.733,63.75c7.179,59.166 -38.55,113.541 -101.941,121.25l-448.421,54.416c-7.438,0.917 -14.2,-4.416 -15.105,-11.833c-0.904,-7.458 4.396,-14.208 11.834,-15.125l448.421,-54.417c48.541,-5.875 83.654,-46.708 78.279,-91.041l-7.738,-63.709c-5.375,-44.333 -49.241,-75.583 -97.779,-69.708l-510.779,62c-48.542,5.917 -83.654,46.75 -78.275,91.042c0.9,7.458 -4.4,14.208 -11.833,15.125c-7.438,0.875 -14.2,-4.417 -15.105,-11.834c-7.179,-59.166 38.551,-113.583 101.942,-121.25l510.779,-62c63.392,-7.708 120.809,34.167 127.988,93.334Z" style="fill:#afcdfb;fill-rule:nonzero;"/><path d="M7227.62,2628.29c0,-22.833 18.5,-41.346 41.334,-41.346c22.833,-0 41.333,18.513 41.333,41.346c-0,22.833 -18.5,41.341 -41.333,41.341c-22.834,0 -41.334,-18.508 -41.334,-41.341Z" style="fill:#f99746;fill-rule:nonzero;"/><path d="M12853.6,7459.5l-12056.8,-0c-7.529,-0 -13.687,-6.167 -13.687,-13.667l-0,-4.666c-0,-7.542 6.158,-13.709 13.691,-13.709l12056.8,0c7.541,0 13.707,6.167 13.707,13.709l0,4.666c0,7.5 -6.166,13.667 -13.707,13.667Z" style="fill:#2e3552;fill-rule:nonzero;"/></g></g></svg>